<?xml version="1.0" encoding="UTF-8"?>
<svg version="1.1" xmlns="http://www.w3.org/2000/svg" width="256" height="183">
<path d="M0 0 C84.48 0 168.96 0 256 0 C256 60.39 256 120.78 256 183 C171.52 183 87.04 183 0 183 C0 122.61 0 62.22 0 0 Z " fill="#FD0000" transform="translate(0,0)"/>
<path d="M0 0 C-0.66 1.32 -1.32 2.64 -2 4 C-0.68 4.66 0.64 5.32 2 6 C2 6.66 2 7.32 2 8 C2.66 8.33 3.32 8.66 4 9 C4.625 11.0625 4.625 11.0625 5 13 C6.32 13 7.64 13 9 13 C9.185625 12.071875 9.185625 12.071875 9.375 11.125 C10 9 10 9 12 7 C12.66 6.01 13.32 5.02 14 4 C14.66 4 15.32 4 16 4 C15.34 2.68 14.68 1.36 14 0 C21.59084981 -2.58411908 28.4367816 -3.10285883 36 0 C36 0.66 36 1.32 36 2 C34.35 2 32.7 2 31 2 C31 2.66 31 3.32 31 4 C35.54170996 2.09115308 35.54170996 2.09115308 40 0 C39.8125 1.875 39.8125 1.875 39 4 C36.625 5.125 36.625 5.125 34 6 C33.01 6.66 32.02 7.32 31 8 C29.53027932 8.46825355 28.04984554 8.90366809 26.5625 9.3125 C22.37409563 10.6768011 20.14854462 11.98315571 18 16 C17.66486406 19.20980136 17.66486406 19.20980136 18 22 C19.65614657 22.38218767 21.32457024 22.71395102 23 23 C24.20107909 22.01073837 24.20107909 22.01073837 24.18359375 20.109375 C24.47019541 17.44618418 24.87291797 15.44062985 26 13 C29.91681021 10.02839225 34.04946772 8 39 8 C39 8.66 39 9.32 39 10 C45.39742182 7.19258771 49.96418347 4.78467036 54 -1 C54.99 -0.67 55.98 -0.34 57 0 C56.63373083 6.34866553 56.63373083 6.34866553 53.75 9.3125 C48.96767303 12.24710973 45.65054542 13.26281607 40 13 C40 14.32 40 15.64 40 17 C41.79323253 16.71812064 43.58457126 16.4241719 45.375 16.125 C46.37273437 15.96257813 47.37046875 15.80015625 48.3984375 15.6328125 C51.1425115 15.2041198 51.1425115 15.2041198 53 13 C54.32 13 55.64 13 57 13 C56.7477201 16.11145209 56.44031706 17.58903741 54.125 19.75 C49.5270437 21.58918252 44.91326762 21.75046452 40 22 C42.55078716 24.08350934 43.64344846 24.96285921 47 25.3125 C49.91642561 25.00870567 51.48014343 24.39026569 54 23 C54.99 23 55.98 23 57 23 C56.6875 25.375 56.6875 25.375 56 28 C52.29034259 30.47310494 49.30185433 30.55899802 45 30 C41.5 28.5 41.5 28.5 39 27 C39.72391532 30.15539038 39.72391532 30.15539038 42.375 31.6875 C47.30649297 33.47304056 51.81116953 33.24928545 57 33 C57 34.32 57 35.64 57 37 C53.2688297 38.86558515 48.82518685 38.58899088 44.91796875 37.328125 C43.25282251 36.60916165 41.62225036 35.81112518 40 35 C43.99445159 39.09956873 45.9635807 40.99635807 51.625 41.5625 C52.44226563 41.64628906 53.25953125 41.73007813 54.1015625 41.81640625 C55.04128906 41.90728516 55.04128906 41.90728516 56 42 C56.625 43.875 56.625 43.875 57 46 C56.01 46.99 56.01 46.99 55 48 C48.71511666 47.87173707 44.27355048 45.24066254 39 42 C41.1178693 46.01280499 43.07435111 48.66131555 47 51 C50.32742062 51.6124087 53.62185983 51.86881009 57 52 C57 53.32 57 54.64 57 56 C54.13391871 57.43304064 52.18699217 57.30644155 49 57 C45.01909742 54.72519853 41.5352229 51.91136004 38 49 C42.21004586 56.36142106 42.21004586 56.36142106 49 61 C52.69523952 61.71923208 52.69523952 61.71923208 56 62 C56 63.32 56 64.64 56 66 C52.86546147 67.56726927 50.45920563 67.33899486 47 67 C44.19921875 64.91796875 44.19921875 64.91796875 41.6875 62.1875 C40.84574219 61.29417969 40.00398438 60.40085938 39.13671875 59.48046875 C37 57 37 57 35 54 C33.515 53.505 33.515 53.505 32 53 C33.62581757 57.96309296 33.62581757 57.96309296 37.1875 61.4375 C37.785625 61.623125 38.38375 61.80875 39 62 C38.505 63.98 38.505 63.98 38 66 C34.09965772 64.73502412 32.01438022 63.62588439 30 60 C29.3125 56.75 29.3125 56.75 29 54 C28.01 54 27.02 54 26 54 C26.495 55.093125 26.99 56.18625 27.5 57.3125 C29 61 29 61 29 64 C24.79373966 62.49776416 23.26099979 59.71449966 21 56 C21.19453336 60.18246733 21.70932418 61.70256428 24.6875 64.75 C27.58313904 66.93049332 30.48214014 68.07865575 34 69 C33.34 70.65 32.68 72.3 32 74 C39.81161784 75.48073513 39.81161784 75.48073513 46.9375 73.0625 C47.618125 72.381875 48.29875 71.70125 49 71 C51.8125 70.75 51.8125 70.75 54 71 C53.505 72.485 53.505 72.485 53 74 C49.9375 75.1875 49.9375 75.1875 47 76 C47.69867188 75.97679688 48.39734375 75.95359375 49.1171875 75.9296875 C50.02726562 75.91164063 50.93734375 75.89359375 51.875 75.875 C52.77992188 75.85179688 53.68484375 75.82859375 54.6171875 75.8046875 C57 76 57 76 59 78 C54.93631321 78.77403558 51.13574827 79.0984702 47 79 C49.31 79.66 51.62 80.32 54 81 C54.33 82.65 54.66 84.3 55 86 C53.02 85.34 51.04 84.68 49 84 C49 83.34 49 82.68 49 82 C45.75815858 80.70385399 45.75815858 80.70385399 42 80 C39.35774595 81.31865712 39.35774595 81.31865712 37 83 C34.1875 83.1875 34.1875 83.1875 32 83 C31.67 83.66 31.34 84.32 31 85 C31.57344937 82.13275314 31.8614515 81.1385485 34 79 C37.125 78.875 37.125 78.875 40 79 C40 78.34 40 77.68 40 77 C38.083412 76.97287847 36.1667127 76.95354903 34.25 76.9375 C33.18265625 76.92589844 32.1153125 76.91429688 31.015625 76.90234375 C28.46631499 76.98489913 26.42066409 77.25382442 24 78 C23.54109375 77.21753906 23.0821875 76.43507813 22.609375 75.62890625 C21.99578125 74.61699219 21.3821875 73.60507813 20.75 72.5625 C20.14671875 71.55316406 19.5434375 70.54382813 18.921875 69.50390625 C17.24935823 66.8706472 17.24935823 66.8706472 14.765625 66.15234375 C14.18296875 66.10207031 13.6003125 66.05179687 13 66 C13 70.14864658 13.00933999 72.75635521 15.63671875 76.0546875 C19.50434121 79.60553326 22.55630045 81.86390751 28 82 C27.505 83.485 27.505 83.485 27 85 C23.2983569 85.94693195 21.60887535 86.30443767 18.125 84.5625 C17.42375 84.046875 16.7225 83.53125 16 83 C19.12621626 86.39417765 21.56541027 88.6062718 26 90 C26 90.66 26 91.32 26 92 C23.375 92.8125 23.375 92.8125 20 93 C17.6413502 91.57631048 15.99297163 89.94551992 14 88 C15.82585558 92.57396492 15.82585558 92.57396492 19.6875 95.375 C20.450625 95.58125 21.21375 95.7875 22 96 C21.34 96.99 20.68 97.98 20 99 C17.6875 98.8125 17.6875 98.8125 15 98 C13.1875 95.4375 13.1875 95.4375 12 93 C12.54033811 97.57273736 12.54033811 97.57273736 13.71875 102 C14 104 14 104 12.78515625 105.921875 C12.21667969 106.52515625 11.64820313 107.1284375 11.0625 107.75 C10.49660156 108.36359375 9.93070313 108.9771875 9.34765625 109.609375 C8.68056641 110.29773438 8.68056641 110.29773438 8 111 C4.26254037 109.28470274 2.2546312 107.50720409 0 104 C0.15055959 101.51576684 0.93756922 100.11445642 2.125 97.9375 C3.32897101 95.85580281 3.32897101 95.85580281 2 93 C1.608125 93.804375 1.21625 94.60875 0.8125 95.4375 C-1 98 -1 98 -3.6875 98.8125 C-4.450625 98.874375 -5.21375 98.93625 -6 99 C-6.66 98.01 -7.32 97.02 -8 96 C-7.05125 95.608125 -6.1025 95.21625 -5.125 94.8125 C-1.65872662 92.80206144 -1.0197307 91.77300358 0 88 C-0.44730469 88.37253906 -0.89460938 88.74507813 -1.35546875 89.12890625 C-6.35506003 93.04116638 -6.35506003 93.04116638 -9.9375 92.8125 C-10.618125 92.544375 -11.29875 92.27625 -12 92 C-11.505 90.515 -11.505 90.515 -11 89 C-8.66666667 88 -6.33333333 87 -4 86 C-3.505 84.515 -3.505 84.515 -3 83 C-3.556875 83.495 -4.11375 83.99 -4.6875 84.5 C-7.38162983 86.24754367 -8.85375007 86.26218749 -12 86 C-12.66 84.68 -13.32 83.36 -14 82 C-12.205625 81.690625 -12.205625 81.690625 -10.375 81.375 C-5.69704785 80.1785078 -2.57856186 78.1328866 0 74 C0.75282968 71.22799136 0.89992661 68.90212824 1 66 C-0.88628468 66.08181584 -0.88628468 66.08181584 -3 67 C-5.01357428 69.52345105 -5.01357428 69.52345105 -6.75 72.5625 C-7.67039062 74.08037109 -7.67039062 74.08037109 -8.609375 75.62890625 C-9.06828125 76.41136719 -9.5271875 77.19382812 -10 78 C-10.65226562 77.9278125 -11.30453125 77.855625 -11.9765625 77.78125 C-16.6737056 77.28243834 -21.26852656 76.87548754 -26 77 C-26 77.66 -26 78.32 -26 79 C-24.88625 78.938125 -23.7725 78.87625 -22.625 78.8125 C-20.830625 78.9053125 -20.830625 78.9053125 -19 79 C-18.34 79.99 -17.68 80.98 -17 82 C-17.33 82.99 -17.66 83.98 -18 85 C-18 84.34 -18 83.68 -18 83 C-19.65 83 -21.3 83 -23 83 C-23 82.34 -23 81.68 -23 81 C-27.6290403 80.09234504 -30.82993597 79.54702116 -35 82 C-35.33 82.99 -35.66 83.98 -36 85 C-38.475 85.495 -38.475 85.495 -41 86 C-40.67 84.35 -40.34 82.7 -40 81 C-36.535 80.01 -36.535 80.01 -33 79 C-33.69867188 79.02320312 -34.39734375 79.04640625 -35.1171875 79.0703125 C-36.48230469 79.09738281 -36.48230469 79.09738281 -37.875 79.125 C-38.77992187 79.14820312 -39.68484375 79.17140625 -40.6171875 79.1953125 C-43 79 -43 79 -45 77 C-40.95858806 76.36605303 -37.0934693 75.87595548 -33 76 C-34.98 75.34 -36.96 74.68 -39 74 C-39 73.34 -39 72.68 -39 72 C-39.99 72 -40.98 72 -42 72 C-42 71.34 -42 70.68 -42 70 C-39.375 69.6875 -39.375 69.6875 -36 70 C-34.5459375 71.2684375 -34.5459375 71.2684375 -33.0625 72.5625 C-30.17947102 75.38754397 -30.17947102 75.38754397 -26.375 74.9375 C-23.64798725 74.17999646 -21.41346868 73.44808121 -19 72 C-19.33 71.01 -19.66 70.02 -20 69 C-19.38511719 68.74605469 -18.77023438 68.49210937 -18.13671875 68.23046875 C-17.32847656 67.88628906 -16.52023438 67.54210937 -15.6875 67.1875 C-14.88699219 66.85105469 -14.08648437 66.51460938 -13.26171875 66.16796875 C-9.2840695 64.11388045 -8.20086151 62.62372786 -6.8125 58.3125 C-6.544375 57.219375 -6.27625 56.12625 -6 55 C-6.66 55 -7.32 55 -8 55 C-8.268125 55.928125 -8.53625 56.85625 -8.8125 57.8125 C-9.91148371 60.76240366 -10.62418561 62.05615186 -13 64 C-14.485 63.505 -14.485 63.505 -16 63 C-15.525625 62.2575 -15.05125 61.515 -14.5625 60.75 C-13.22130673 58.38949985 -12.487688 56.63351523 -12 54 C-12.99 54 -13.98 54 -15 54 C-15.0825 54.886875 -15.165 55.77375 -15.25 56.6875 C-16.11028051 60.48707224 -17.26117589 62.26117589 -20 65 C-22.25 65.8125 -22.25 65.8125 -24 66 C-24.33 64.68 -24.66 63.36 -25 62 C-24.21625 61.62875 -23.4325 61.2575 -22.625 60.875 C-19.39371171 58.56693694 -18.92493788 56.78383679 -18 53 C-22.50029595 55.18196167 -25.20115264 58.29911446 -28.3515625 62.0625 C-31.44426336 65.69752282 -31.44426336 65.69752282 -33 67 C-39.13846154 67.43076923 -39.13846154 67.43076923 -42 66 C-42 64.68 -42 63.36 -42 62 C-41.40832031 61.91363281 -40.81664063 61.82726562 -40.20703125 61.73828125 C-32.7039364 60.40412572 -29.3585569 57.19373875 -25 51 C-25.495 50.505 -25.495 50.505 -26 50 C-26.60134766 50.63228516 -26.60134766 50.63228516 -27.21484375 51.27734375 C-31.90956687 55.80173678 -35.52060152 56.97061497 -42 57 C-42.33 55.35 -42.66 53.7 -43 52 C-42.35933594 51.99742188 -41.71867187 51.99484375 -41.05859375 51.9921875 C-35.05062664 51.72357496 -31.68391418 50.6969361 -27.27734375 46.5703125 C-25.77410486 44.91119687 -25.77410486 44.91119687 -25 42 C-25.80824219 42.44472656 -26.61648437 42.88945313 -27.44921875 43.34765625 C-28.51785156 43.91355469 -29.58648437 44.47945312 -30.6875 45.0625 C-31.74324219 45.63097656 -32.79898438 46.19945312 -33.88671875 46.78515625 C-37.22387221 48.08735791 -38.65035056 48.08754852 -42 47 C-42.5625 45.0625 -42.5625 45.0625 -43 43 C-41.47364408 41.47364408 -39.93440638 41.81189987 -37.8125 41.6875 C-33.11074816 41.22257398 -30.62710177 39.99235896 -27 37 C-26.67 36.34 -26.34 35.68 -26 35 C-27.175625 35.495 -28.35125 35.99 -29.5625 36.5 C-33.49304906 37.98006466 -36.77488919 38.33800887 -41 38 C-41.66 37.67 -42.32 37.34 -43 37 C-43 35.68 -43 34.36 -43 33 C-42.27554688 33.03480469 -41.55109375 33.06960937 -40.8046875 33.10546875 C-32.97399471 33.33549481 -32.97399471 33.33549481 -26 30 C-25.67 29.01 -25.34 28.02 -25 27 C-25.825 27.495 -26.65 27.99 -27.5 28.5 C-31.90158735 30.38639458 -34.24756711 30.536565 -39 30 C-41.5 28.1875 -41.5 28.1875 -43 26 C-43 25.01 -43 24.02 -43 23 C-38.125 23.875 -38.125 23.875 -37 25 C-34.9257003 24.97428296 -34.9257003 24.97428296 -32.5625 24.6875 C-31.75941406 24.60886719 -30.95632812 24.53023437 -30.12890625 24.44921875 C-27.79517085 24.15909117 -27.79517085 24.15909117 -26 22 C-27.21236328 21.96132813 -27.21236328 21.96132813 -28.44921875 21.921875 C-37.17767664 21.45860341 -37.17767664 21.45860341 -41.25 19.1875 C-43 17 -43 17 -43 13 C-39.62537285 13.54723683 -37.91765 14.0549 -35 16 C-32.72087062 16.45394552 -32.72087062 16.45394552 -30.3125 16.625 C-29.50425781 16.69976562 -28.69601563 16.77453125 -27.86328125 16.8515625 C-27.24839844 16.90054688 -26.63351563 16.94953125 -26 17 C-26 15.68 -26 14.36 -26 13 C-27.485 13.1546875 -27.485 13.1546875 -29 13.3125 C-33.81730669 13.33212243 -37.34983716 10.97886853 -41 8 C-43.1519437 4.77208445 -43.20086443 3.71599191 -43 0 C-41.68 0 -40.36 0 -39 0 C-37.62926214 1.63604196 -36.29944744 3.30678061 -35 5 C-32.04326925 7.31743762 -30.66371114 8.02654845 -26.875 7.875 C-21.24973325 8.05646022 -16.5608717 9.65942842 -12 13 C-10.53187669 15.98618279 -10.09372676 18.69072455 -10 22 C-8.34385343 22.38218767 -6.67542976 22.71395102 -5 23 C-3.70043665 21.90801858 -3.70043665 21.90801858 -3.6875 19.25 C-4.09856625 14.97491099 -4.72668196 13.82695649 -8 11 C-11.03896936 9.78860394 -14.08137321 8.80701767 -17.22265625 7.89453125 C-20.60026387 6.80666607 -23.05592991 4.96271339 -26 3 C-25.67 2.01 -25.34 1.02 -25 0 C-24.13375 0.7115625 -24.13375 0.7115625 -23.25 1.4375 C-21.07417916 2.9484867 -19.57397552 3.54036151 -17 4 C-17 3.34 -17 2.68 -17 2 C-18.65 2 -20.3 2 -22 2 C-22 1.34 -22 0.68 -22 0 C-14.20109511 -3.11956196 -7.80971471 -2.23134706 0 0 Z " fill="#080000" transform="translate(121,37)"/>
<path d="M0 0 C2.96844435 -0.35338623 5.15598218 -0.5417682 7.734375 1.11328125 C9.20348819 2.35503168 10.60704814 3.67337918 12 5 C11.67 5.99 11.34 6.98 11 8 C9.04310341 8.22142255 7.08438048 8.4267568 5.125 8.625 C4.03445312 8.74101563 2.94390625 8.85703125 1.8203125 8.9765625 C0.42425781 8.98816406 0.42425781 8.98816406 -1 9 C-1.66 8.34 -2.32 7.68 -3 7 C1.04141194 6.36605303 4.9065307 5.87595548 9 6 C7.02 5.34 5.04 4.68 3 4 C3 3.34 3 2.68 3 2 C2.01 2 1.02 2 0 2 C0 1.34 0 0.68 0 0 Z " fill="#290000" transform="translate(79,107)"/>
<path d="M0 0 C1.98 0 3.96 0 6 0 C5.34 1.32 4.68 2.64 4 4 C3.67 3.34 3.34 2.68 3 2 C2.01 1.34 1.02 0.68 0 0 Z M-2 4 C0.64 4.33 3.28 4.66 6 5 C2.5980513 7.09350689 -0.05272412 7.17942163 -4 7 C-3.34 6.01 -2.68 5.02 -2 4 Z " fill="#B90000" transform="translate(171,107)"/>
<path d="M0 0 C0.969375 0.185625 1.93875 0.37125 2.9375 0.5625 C3.618125 0.706875 4.29875 0.85125 5 1 C4.01 1.33 3.02 1.66 2 2 C1.67 2.66 1.34 3.32 1 4 C1 3.34 1 2.68 1 2 C-2.96 1.67 -6.92 1.34 -11 1 C-6.38553428 -1.30723286 -4.92217216 -0.94989287 0 0 Z " fill="#290000" transform="translate(160,112)"/>
<path d="M0 0 C0.78375 0.04125 1.5675 0.0825 2.375 0.125 C2.705 0.785 3.035 1.445 3.375 2.125 C0.14708445 4.2769437 -0.90900809 4.32586443 -4.625 4.125 C-4.955 4.785 -5.285 5.445 -5.625 6.125 C-4.86443086 2.32215429 -4.27658992 0.20364714 0 0 Z " fill="#290000" transform="translate(157.625,115.875)"/>
<path d="M0 0 C1.010625 0.0825 2.02125 0.165 3.0625 0.25 C3.7225 1.24 4.3825 2.23 5.0625 3.25 C4.7325 4.24 4.4025 5.23 4.0625 6.25 C4.0625 5.59 4.0625 4.93 4.0625 4.25 C2.4125 4.25 0.7625 4.25 -0.9375 4.25 C-0.9375 3.59 -0.9375 2.93 -0.9375 2.25 C-1.9275 1.92 -2.9175 1.59 -3.9375 1.25 C-2.9375 0.25 -2.9375 0.25 0 0 Z " fill="#2B0000" transform="translate(98.9375,115.75)"/>
<path d="M0 0 C0.99 0 1.98 0 3 0 C3.66 2.31 4.32 4.62 5 7 C4.01 7 3.02 7 2 7 C0 4 0 4 0 0 Z " fill="#E60000" transform="translate(147,91)"/>
<path d="M0 0 C0.99 0 1.98 0 3 0 C2.6875 2.875 2.6875 2.875 2 6 C1.01 6.66 0.02 7.32 -1 8 C-2 6 -2 6 -1.0625 2.875 C-0.5365625 1.451875 -0.5365625 1.451875 0 0 Z " fill="#E60000" transform="translate(106,91)"/>
<path d="M0 0 C1.00289062 0.10183594 2.00578125 0.20367187 3.0390625 0.30859375 C3.80992188 0.39238281 4.58078125 0.47617188 5.375 0.5625 C5.375 0.8925 5.375 1.2225 5.375 1.5625 C3.58491533 1.78401549 1.79281838 1.98932213 0 2.1875 C-0.99773437 2.30351563 -1.99546875 2.41953125 -3.0234375 2.5390625 C-3.88195312 2.54679687 -4.74046875 2.55453125 -5.625 2.5625 C-6.285 1.9025 -6.945 1.2425 -7.625 0.5625 C-4.89657939 -0.80171031 -3.01546682 -0.31557211 0 0 Z " fill="#090000" transform="translate(83.625,113.4375)"/>
<path d="M0 0 C6.625 -0.25 6.625 -0.25 10 2 C6.6875 2.6875 6.6875 2.6875 3 3 C1.0625 1.5625 1.0625 1.5625 0 0 Z " fill="#AC0000" transform="translate(167,115)"/>
<path d="M0 0 C-1.0625 1.5625 -1.0625 1.5625 -3 3 C-6.6875 2.6875 -6.6875 2.6875 -10 2 C-6.3558226 -0.4294516 -4.28758728 -0.16179575 0 0 Z " fill="#AC0000" transform="translate(89,115)"/>
<path d="M0 0 C0.33 0.99 0.66 1.98 1 3 C-1.90092502 4.93395001 -2.89674737 5.30131941 -6.1875 5.625 C-7.445625 5.74875 -8.70375 5.8725 -10 6 C-9.67 5.01 -9.34 4.02 -9 3 C-7.88625 2.87625 -6.7725 2.7525 -5.625 2.625 C-1.96896323 2.3534187 -1.96896323 2.3534187 0 0 Z " fill="#340000" transform="translate(160,37)"/>
<path d="M0 0 C0.721875 0.495 1.44375 0.99 2.1875 1.5 C5.14848659 3.07919285 6.71253029 3.28178312 10 3 C10 3.99 10 4.98 10 6 C5.545 5.01 5.545 5.01 1 4 C0.67 2.68 0.34 1.36 0 0 Z " fill="#340000" transform="translate(95,37)"/>
</svg>
