<?xml version="1.0" encoding="UTF-8"?>
<svg version="1.1" xmlns="http://www.w3.org/2000/svg" width="256" height="171">
<path d="M0 0 C84.48 0 168.96 0 256 0 C256 56.43 256 112.86 256 171 C171.52 171 87.04 171 0 171 C0 114.57 0 58.14 0 0 Z " fill="#DD280F" transform="translate(0,0)"/>
<path d="M0 0 C2 1 2 1 3.0703125 3.58203125 C3.41835938 4.64808594 3.76640625 5.71414062 4.125 6.8125 C4.47820313 7.87082031 4.83140625 8.92914063 5.1953125 10.01953125 C6 13 6 13 6 17 C11.94 17 17.88 17 24 17 C19.93887294 21.06112706 16.68404114 23.90676528 12 27 C11.34 27 10.68 27 10 27 C12.97 35.91 12.97 35.91 16 45 C11.72349034 42.86174517 8.22989707 40.24804671 4.4375 37.36328125 C2.18121881 35.83176258 2.18121881 35.83176258 0.046875 36.0390625 C-2.82585293 37.38770958 -5.21311048 39.15983286 -7.75 41.0625 C-8.73484375 41.79597656 -9.7196875 42.52945313 -10.734375 43.28515625 C-11.48203125 43.85105469 -12.2296875 44.41695312 -13 45 C-14.27654939 41.17035183 -13.42573131 39.74544359 -12.0625 36 C-10.44582507 31.60587197 -10.44582507 31.60587197 -10 27 C-12.13867397 25.32548879 -14.225963 23.84059557 -16.5 22.375 C-18.68501353 20.93952334 -20.84729659 19.48441911 -23 18 C-23 17.67 -23 17.34 -23 17 C-17.06 17 -11.12 17 -5 17 C-4.731875 15.68 -4.46375 14.36 -4.1875 13 C-3.18827949 8.46397021 -1.72361286 4.30903216 0 0 Z " fill="#FDD700" transform="translate(42,18)"/>
<path d="M0 0 C2 3 2 3 2 5 C3.98 5 5.96 5 8 5 C7.505 5.37125 7.01 5.7425 6.5 6.125 C4.40244486 8.74694393 4.78256165 10.73842472 5 14 C4.2575 13.62875 3.515 13.2575 2.75 12.875 C0.05716353 11.70484137 0.05716353 11.70484137 -2.3125 12.875 C-3.1478125 13.431875 -3.1478125 13.431875 -4 14 C-3.67 12.02 -3.34 10.04 -3 8 C-4.32 7.67 -5.64 7.34 -7 7 C-7 6.34 -7 5.68 -7 5 C-5.02 5 -3.04 5 -1 5 C-0.67 3.35 -0.34 1.7 0 0 Z " fill="#FACA01" transform="translate(102,52)"/>
<path d="M0 0 C0.33 0 0.66 0 1 0 C1 1.65 1 3.3 1 5 C2.65 5.33 4.3 5.66 6 6 C5.67 6.66 5.34 7.32 5 8 C3.68 8 2.36 8 1 8 C1 9.98 1 11.96 1 14 C0.34 14 -0.32 14 -1 14 C-1.66 12.68 -2.32 11.36 -3 10 C-4.65 10 -6.3 10 -8 10 C-7.62875 9.2575 -7.2575 8.515 -6.875 7.75 C-5.70484137 5.05716353 -5.70484137 5.05716353 -6.875 2.6875 C-7.24625 2.130625 -7.6175 1.57375 -8 1 C-6.576875 1.309375 -6.576875 1.309375 -5.125 1.625 C-4.09375 1.74875 -3.0625 1.8725 -2 2 C-1.34 1.34 -0.68 0.68 0 0 Z " fill="#FAC901" transform="translate(87,11)"/>
<path d="M0 0 C0.33 0 0.66 0 1 0 C1.12375 1.1446875 1.12375 1.1446875 1.25 2.3125 C2.14615794 5.52373261 3.21611025 6.29374499 6 8 C4.68 8.33 3.36 8.66 2 9 C1.67 10.98 1.34 12.96 1 15 C-0.5 13.625 -0.5 13.625 -2 12 C-2 11.34 -2 10.68 -2 10 C-3.98 10.33 -5.96 10.66 -8 11 C-7.62875 10.2575 -7.2575 9.515 -6.875 8.75 C-5.70484137 6.05716353 -5.70484137 6.05716353 -6.875 3.6875 C-7.24625 3.130625 -7.6175 2.57375 -8 2 C-7.05125 2.04125 -6.1025 2.0825 -5.125 2.125 C-1.89755144 2.34973818 -1.89755144 2.34973818 0 0 Z " fill="#FBCD01" transform="translate(87,70)"/>
<path d="M0 0 C0.99 0.66 1.98 1.32 3 2 C3 2.66 3 3.32 3 4 C4.98 3.34 6.96 2.68 9 2 C8.79375 2.928125 8.5875 3.85625 8.375 4.8125 C7.63307034 8.15173402 7.63307034 8.15173402 10 11 C9.236875 10.938125 8.47375 10.87625 7.6875 10.8125 C4.95474688 10.74101915 4.95474688 10.74101915 3.1875 12.5 C2.795625 12.995 2.40375 13.49 2 14 C1.67 12.35 1.34 10.7 1 9 C-0.32 9 -1.64 9 -3 9 C-3 8.34 -3 7.68 -3 7 C-2.34 6.67 -1.68 6.34 -1 6 C-0.34227572 2.97065509 -0.34227572 2.97065509 0 0 Z " fill="#FBCF01" transform="translate(99,27)"/>
</svg>
