<?xml version="1.0" encoding="UTF-8"?>
<svg version="1.1" xmlns="http://www.w3.org/2000/svg" width="256" height="156">
<path d="M0 0 C84.48 0 168.96 0 256 0 C256 51.48 256 102.96 256 156 C171.52 156 87.04 156 0 156 C0 104.52 0 53.04 0 0 Z " fill="#003480" transform="translate(0,0)"/>
<path d="M0 0 C46.86 0 93.72 0 142 0 C142 18.81 142 37.62 142 57 C95.14 57 48.28 57 0 57 C0 38.19 0 19.38 0 0 Z " fill="#FCFDFD" transform="translate(114,99)"/>
<path d="M0 0 C46.86 0 93.72 0 142 0 C142 18.81 142 37.62 142 57 C95.14 57 48.28 57 0 57 C0 38.19 0 19.38 0 0 Z " fill="#FCFDFD" transform="translate(114,0)"/>
<path d="M0 0 C23.43 0 46.86 0 71 0 C71 18.81 71 37.62 71 57 C47.57 57 24.14 57 0 57 C0 38.19 0 19.38 0 0 Z " fill="#FCFDFD" transform="translate(0,99)"/>
<path d="M0 0 C23.43 0 46.86 0 71 0 C71 18.81 71 37.62 71 57 C47.57 57 24.14 57 0 57 C0 38.19 0 19.38 0 0 Z " fill="#FCFDFD" transform="translate(0,0)"/>
</svg>
