<?xml version="1.0" encoding="UTF-8"?>
<svg version="1.1" xmlns="http://www.w3.org/2000/svg" width="256" height="171">
<path d="M0 0 C84.48 0 168.96 0 256 0 C256 56.43 256 112.86 256 171 C171.52 171 87.04 171 0 171 C0 114.57 0 58.14 0 0 Z " fill="#FCFCFC" transform="translate(0,0)"/>
<path d="M0 0 C28.05 0 56.1 0 85 0 C85 56.43 85 112.86 85 171 C56.95 171 28.9 171 0 171 C0 114.57 0 58.14 0 0 Z " fill="#EC2838" transform="translate(171,0)"/>
<path d="M0 0 C28.05 0 56.1 0 85 0 C85 56.43 85 112.86 85 171 C56.95 171 28.9 171 0 171 C0 114.57 0 58.14 0 0 Z " fill="#002294" transform="translate(0,0)"/>
</svg>
