<?xml version="1.0" encoding="UTF-8"?>
<svg version="1.1" xmlns="http://www.w3.org/2000/svg" width="256" height="128">
<path d="M0 0 C84.48 0 168.96 0 256 0 C256 42.24 256 84.48 256 128 C171.52 128 87.04 128 0 128 C0 85.76 0 43.52 0 0 Z " fill="#CD2B3F" transform="translate(0,0)"/>
<path d="M0 0 C84.48 0 168.96 0 256 0 C256 14.19 256 28.38 256 43 C171.52 43 87.04 43 0 43 C0 28.81 0 14.62 0 0 Z " fill="#44704E" transform="translate(0,85)"/>
<path d="M0 0 C84.48 0 168.96 0 256 0 C256 13.86 256 27.72 256 42 C171.52 42 87.04 42 0 42 C0 28.14 0 14.28 0 0 Z " fill="#FEFEFE" transform="translate(0,43)"/>
</svg>
