<?xml version="1.0" encoding="UTF-8"?>
<svg version="1.1" xmlns="http://www.w3.org/2000/svg" width="256" height="171">
<path d="M0 0 C84.48 0 168.96 0 256 0 C256 56.43 256 112.86 256 171 C171.52 171 87.04 171 0 171 C0 114.57 0 58.14 0 0 Z " fill="#FDFDFD" transform="translate(0,0)"/>
<path d="M0 0 C84.48 0 168.96 0 256 0 C256 18.81 256 37.62 256 57 C171.52 57 87.04 57 0 57 C0 38.19 0 19.38 0 0 Z " fill="#118706" transform="translate(0,114)"/>
<path d="M0 0 C84.48 0 168.96 0 256 0 C256 18.81 256 37.62 256 57 C171.52 57 87.04 57 0 57 C0 38.19 0 19.38 0 0 Z " fill="#FE9832" transform="translate(0,0)"/>
<path d="M0 0 C5.62286854 3.31269775 10.08153522 8.12644864 12.890625 14 C14.40906021 21.59217605 13.84121797 26.95015972 10.078125 33.82421875 C6.94657859 38.43542084 2.72412399 42.06925615 -2.484375 44.125 C-9.86916293 44.98898381 -16.7715939 45.25213691 -22.875 40.609375 C-28.52883283 35.39467482 -32.50901709 29.66310995 -32.921875 21.75 C-32.66244079 15.64810741 -30.7562401 10.56911716 -26.578125 6.07421875 C-18.8722613 -0.86968454 -10.34078241 -3.64203657 0 0 Z " fill="#E5E5F2" transform="translate(137.484375,63.875)"/>
<path d="M0 0 C5.62286854 3.31269775 10.08153522 8.12644864 12.890625 14 C14.40906021 21.59217605 13.84121797 26.95015972 10.078125 33.82421875 C6.94657859 38.43542084 2.72412399 42.06925615 -2.484375 44.125 C-9.86916293 44.98898381 -16.7715939 45.25213691 -22.875 40.609375 C-28.52883283 35.39467482 -32.50901709 29.66310995 -32.921875 21.75 C-32.66244079 15.64810741 -30.7562401 10.56911716 -26.578125 6.07421875 C-18.8722613 -0.86968454 -10.34078241 -3.64203657 0 0 Z M-20.484375 5.125 C-20.484375 5.785 -20.484375 6.445 -20.484375 7.125 C-21.804375 7.455 -23.124375 7.785 -24.484375 8.125 C-24.484375 8.785 -24.484375 9.445 -24.484375 10.125 C-25.144375 10.125 -25.804375 10.125 -26.484375 10.125 C-29.524911 17.66095213 -29.7103824 23.30682767 -27.484375 31.125 C-27.154375 31.785 -26.824375 32.445 -26.484375 33.125 C-25.824375 33.125 -25.164375 33.125 -24.484375 33.125 C-23.824375 34.445 -23.164375 35.765 -22.484375 37.125 C-21.824375 37.125 -21.164375 37.125 -20.484375 37.125 C-20.484375 37.785 -20.484375 38.445 -20.484375 39.125 C-16.67909109 40.88774181 -13.6683224 41.39634667 -9.484375 41.375 C-8.47375 41.38015625 -7.463125 41.3853125 -6.421875 41.390625 C-3.4139774 41.11863426 -1.21130707 40.38821118 1.515625 39.125 C1.515625 38.465 1.515625 37.805 1.515625 37.125 C2.835625 36.465 4.155625 35.805 5.515625 35.125 C5.515625 34.465 5.515625 33.805 5.515625 33.125 C6.175625 33.125 6.835625 33.125 7.515625 33.125 C10.556161 25.58904787 10.7416324 19.94317233 8.515625 12.125 C8.020625 11.135 8.020625 11.135 7.515625 10.125 C6.855625 10.125 6.195625 10.125 5.515625 10.125 C4.855625 8.805 4.195625 7.485 3.515625 6.125 C2.855625 6.125 2.195625 6.125 1.515625 6.125 C1.515625 5.465 1.515625 4.805 1.515625 4.125 C-2.27490224 2.37606188 -5.31746585 1.82844481 -9.484375 1.8125 C-10.495 1.79574219 -11.505625 1.77898437 -12.546875 1.76171875 C-15.89893109 2.17626824 -17.80198731 3.09841665 -20.484375 5.125 Z " fill="#151591" transform="translate(137.484375,63.875)"/>
<path d="M0 0 C0.66 0 1.32 0 2 0 C2.33 1.32 2.66 2.64 3 4 C3.66 3.01 4.32 2.02 5 1 C5 2.98 5 4.96 5 7 C8.90838866 7 10.11594107 5.49432124 13 3 C11.70700306 5.88437779 10.34058637 7.87219421 8 10 C9.9254644 12.2236068 9.9254644 12.2236068 13 13 C12.01 13.495 12.01 13.495 11 14 C12.32 14.66 13.64 15.32 15 16 C13.68 16.33 12.36 16.66 11 17 C12.98 17.66 14.96 18.32 17 19 C14.92446352 19.5534764 13.15634036 20 11 20 C11.99 20.99 12.98 21.98 14 23 C12.35 22.67 10.7 22.34 9 22 C9 22.99 9 23.98 9 25 C8.34 24.67 7.68 24.34 7 24 C6.67 24.66 6.34 25.32 6 26 C5.67 26 5.34 26 5 26 C4.67 27.32 4.34 28.64 4 30 C3.67 29.01 3.34 28.02 3 27 C1.68 27 0.36 27 -1 27 C-1.66 27.99 -2.32 28.98 -3 30 C-3 28.35 -3 26.7 -3 25 C-3.66 25.33 -4.32 25.66 -5 26 C-5 25.01 -5 24.02 -5 23 C-6.32 23.99 -7.64 24.98 -9 26 C-8.67 24.68 -8.34 23.36 -8 22 C-9.32 22.33 -10.64 22.66 -12 23 C-11.01 22.01 -10.02 21.02 -9 20 C-10.98 20 -12.96 20 -15 20 C-12 18 -12 18 -9 17 C-10.98 16.67 -12.96 16.34 -15 16 C-15 15.67 -15 15.34 -15 15 C-13.02 14.67 -11.04 14.34 -9 14 C-9.99 13.34 -10.98 12.68 -12 12 C-11.01 11.67 -10.02 11.34 -9 11 C-9.33 10.34 -9.66 9.68 -10 9 C-9.01 9 -8.02 9 -7 9 C-8.32 7.68 -9.64 6.36 -11 5 C-10.67 4.34 -10.34 3.68 -10 3 C-7.525 4.98 -7.525 4.98 -5 7 C-5.66 5.35 -6.32 3.7 -7 2 C-5.68 2.99 -4.36 3.98 -3 5 C-2.67 3.68 -2.34 2.36 -2 1 C-1.67 1.99 -1.34 2.98 -1 4 C-0.67 2.68 -0.34 1.36 0 0 Z " fill="#5E5EB3" transform="translate(127,70)"/>
<path d="M0 0 C1.04285156 -0.00515625 2.08570313 -0.0103125 3.16015625 -0.015625 C5.9375 0.25 5.9375 0.25 8.9375 2.25 C7.60261872 5.84391114 5.97727277 9.00490696 3.9375 12.25 C3.6075 10.93 3.2775 9.61 2.9375 8.25 C1.9475 9.735 1.9475 9.735 0.9375 11.25 C0.9375 8.94 0.9375 6.63 0.9375 4.25 C0.2775 4.25 -0.3825 4.25 -1.0625 4.25 C-1.0625 6.56 -1.0625 8.87 -1.0625 11.25 C-1.7225 10.59 -2.3825 9.93 -3.0625 9.25 C-3.3925 10.24 -3.7225 11.23 -4.0625 12.25 C-5.0525 10.93 -6.0425 9.61 -7.0625 8.25 C-6.4025 9.9 -5.7425 11.55 -5.0625 13.25 C-7.0425 11.6 -9.0225 9.95 -11.0625 8.25 C-9.0825 11.22 -9.0825 11.22 -7.0625 14.25 C-8.0525 14.25 -9.0425 14.25 -10.0625 14.25 C-10.0625 15.24 -10.0625 16.23 -10.0625 17.25 C-9.4025 17.91 -8.7425 18.57 -8.0625 19.25 C-8.0625 19.91 -8.0625 20.57 -8.0625 21.25 C-10.0425 22.24 -10.0425 22.24 -12.0625 23.25 C-11.0725 23.58 -10.0825 23.91 -9.0625 24.25 C-9.7225 24.91 -10.3825 25.57 -11.0625 26.25 C-9.7425 25.92 -8.4225 25.59 -7.0625 25.25 C-10.0325 28.715 -10.0325 28.715 -13.0625 32.25 C-14.3825 31.92 -15.7025 31.59 -17.0625 31.25 C-20.620802 25.20337492 -20.16578281 19.10071217 -18.703125 12.5 C-18.0625 10.25 -18.0625 10.25 -17.0625 8.25 C-16.4025 8.25 -15.7425 8.25 -15.0625 8.25 C-14.7325 7.26 -14.4025 6.27 -14.0625 5.25 C-13.0725 5.25 -12.0825 5.25 -11.0625 5.25 C-10.7325 4.26 -10.4025 3.27 -10.0625 2.25 C-6.82012717 -0.00687204 -3.87284105 -0.01919624 0 0 Z " fill="#EFEFF7" transform="translate(128.0625,65.75)"/>
<path d="M0 0 C2.69082872 0.17635452 5.32851446 0.61835921 8 1 C7.34 1.66 6.68 2.32 6 3 C7.32 3.66 8.64 4.32 10 5 C8.68 5.33 7.36 5.66 6 6 C7.98 6.66 9.96 7.32 12 8 C9.92446352 8.5534764 8.15634036 9 6 9 C6.99 9.99 7.98 10.98 9 12 C7.35 11.67 5.7 11.34 4 11 C4 11.99 4 12.98 4 14 C3.34 13.67 2.68 13.34 2 13 C1.67 13.66 1.34 14.32 1 15 C0.67 15 0.34 15 0 15 C-0.33 16.32 -0.66 17.64 -1 19 C-1.33 18.01 -1.66 17.02 -2 16 C-3.32 16 -4.64 16 -6 16 C-6.66 16.99 -7.32 17.98 -8 19 C-7.25 12.25 -7.25 12.25 -5 10 C-4.34 10.33 -3.68 10.66 -3 11 C-3 10.34 -3 9.68 -3 9 C-5.475 8.01 -5.475 8.01 -8 7 C-8 5.35 -8 3.7 -8 2 C-6.865625 1.855625 -5.73125 1.71125 -4.5625 1.5625 C-1.19222799 1.38828522 -1.19222799 1.38828522 0 0 Z " fill="#5757B0" transform="translate(132,81)"/>
<path d="M0 0 C0.66 0 1.32 0 2 0 C2 0.66 2 1.32 2 2 C3.32 2.66 4.64 3.32 6 4 C6 4.66 6 5.32 6 6 C6.66 6 7.32 6 8 6 C8.33 7.65 8.66 9.3 9 11 C8.67 10.34 8.34 9.68 8 9 C6.68 9.33 5.36 9.66 4 10 C4 10.66 4 11.32 4 12 C4.99 12.66 5.98 13.32 7 14 C0.25 15.125 0.25 15.125 -2 14 C-2 10.48283697 -1.17554415 9.62878252 1 7 C-0.65 8.32 -2.3 9.64 -4 11 C-3.49357808 6.64477147 -2.61588503 3.55760365 0 0 Z " fill="#DFDFEF" transform="translate(137,68)"/>
<path d="M0 0 C0.66 0 1.32 0 2 0 C2.33 1.32 2.66 2.64 3 4 C3.66 3.01 4.32 2.02 5 1 C5 2.98 5 4.96 5 7 C8.90838866 7 10.11594107 5.49432124 13 3 C11.5572683 6.36637397 9.83532593 8.66502571 7 11 C5.68 11 4.36 11 3 11 C2.67 10.34 2.34 9.68 2 9 C1.34 9 0.68 9 0 9 C-0.33 9.66 -0.66 10.32 -1 11 C-6.57142857 5.85714286 -6.57142857 5.85714286 -7 2 C-5.68 2.99 -4.36 3.98 -3 5 C-2.67 3.68 -2.34 2.36 -2 1 C-1.67 1.99 -1.34 2.98 -1 4 C-0.67 2.68 -0.34 1.36 0 0 Z " fill="#6464B6" transform="translate(127,70)"/>
<path d="M0 0 C0.49628906 0.433125 0.99257812 0.86625 1.50390625 1.3125 C6.17763736 5.26101266 6.17763736 5.26101266 12 6.375 C12.99 6.25125 13.98 6.1275 15 6 C15 7.32 15 8.64 15 10 C12.89722877 10.22197585 10.79267698 10.42713637 8.6875 10.625 C7.51574219 10.74101563 6.34398438 10.85703125 5.13671875 10.9765625 C2 11 2 11 -1 9 C-0.01 8.67 0.98 8.34 2 8 C1.67 7.34 1.34 6.68 1 6 C1.99 6 2.98 6 4 6 C3.34 5.38125 2.68 4.7625 2 4.125 C0 2 0 2 0 0 Z " fill="#7272BD" transform="translate(116,73)"/>
<path d="M0 0 C2.74277578 3.19990508 4.6302836 6.00499382 6 10 C3 12 3 12 0.3125 11.625 C-0.450625 11.41875 -1.21375 11.2125 -2 11 C-2 7.7 -2 4.4 -2 1 C-1.34 1.66 -0.68 2.32 0 3 C0 2.01 0 1.02 0 0 Z " fill="#E8E8F3" transform="translate(131,93)"/>
<path d="M0 0 C2.61500768 2.36595933 4.38999603 4.86049226 6 8 C5.67 8.66 5.34 9.32 5 10 C3.35 8.68 1.7 7.36 0 6 C1.32 7.65 2.64 9.3 4 11 C0.22454612 9.90931332 -2.47043472 9.0916909 -5 6 C-4.34 4.68 -3.68 3.36 -3 2 C-2.01 2 -1.02 2 0 2 C0 1.34 0 0.68 0 0 Z " fill="#F6F6FA" transform="translate(117,69)"/>
<path d="M0 0 C3.33333333 1.66666667 6.66666667 3.33333333 10 5 C9.34 6.32 8.68 7.64 8 9 C7.34 9 6.68 9 6 9 C6 9.66 6 10.32 6 11 C5.34 11 4.68 11 4 11 C1.38411497 7.44239635 0.50642192 4.35522853 0 0 Z " fill="#D0D0E8" transform="translate(133,92)"/>
<path d="M0 0 C0 1.65 0 3.3 0 5 C-5.75 6.125 -5.75 6.125 -8 5 C-8 3.35 -8 1.7 -8 0 C-5.13822943 -1.43088528 -3.06624227 -0.59991697 0 0 Z " fill="#07078B" transform="translate(132,83)"/>
<path d="M0 0 C0.33 0.66 0.66 1.32 1 2 C-0.20850753 5.07620099 -1.52221785 8.0444357 -3 11 C-3.66 11 -4.32 11 -5 11 C-5 10.34 -5 9.68 -5 9 C-6.32 8.34 -7.64 7.68 -9 7 C-7.50011061 4.00022122 -4.94840874 3.44411857 -2 2 C-1.34 1.34 -0.68 0.68 0 0 Z " fill="#D4D4EA" transform="translate(122,92)"/>
<path d="M0 0 C2.15377564 2.62198774 3.40072174 4.64404172 4 8 C3.34 8 2.68 8 2 8 C1.67 9.32 1.34 10.64 1 12 C0.67 11.01 0.34 10.02 0 9 C-1.32 9 -2.64 9 -4 9 C-4.66 9.99 -5.32 10.98 -6 12 C-5.25 5.25 -5.25 5.25 -3 3 C-2.34 3.33 -1.68 3.66 -1 4 C-0.67 2.68 -0.34 1.36 0 0 Z " fill="#5D5DB3" transform="translate(130,88)"/>
<path d="M0 0 C0 0.66 0 1.32 0 2 C0.66 2 1.32 2 2 2 C2 3.98 2 5.96 2 8 C-1.63 8 -5.26 8 -9 8 C-6.8614515 5.8614515 -5.86724686 5.57344937 -3 5 C-3.66 4.34 -4.32 3.68 -5 3 C-2.25 0 -2.25 0 0 0 Z " fill="#F5F5FA" transform="translate(145,77)"/>
<path d="M0 0 C0.66 0 1.32 0 2 0 C2 0.66 2 1.32 2 2 C3.32 2.66 4.64 3.32 6 4 C5.67 4.66 5.34 5.32 5 6 C4.13375 6.185625 4.13375 6.185625 3.25 6.375 C0.2129626 7.2186215 -1.63688705 8.96509718 -4 11 C-3.49357808 6.64477147 -2.61588503 3.55760365 0 0 Z " fill="#D1D1E9" transform="translate(137,68)"/>
<path d="M0 0 C3.41883322 1.70941661 6.29058339 4.58116678 8 8 C0.25 8.125 0.25 8.125 -2 7 C-1.34 4.69 -0.68 2.38 0 0 Z " fill="#D4D4EA" transform="translate(111,74)"/>
<path d="M0 0 C2.20914 3.31371 2.22481553 4.3446021 2.125 8.1875 C2.10695313 9.08855469 2.08890625 9.98960938 2.0703125 10.91796875 C2.03550781 11.94857422 2.03550781 11.94857422 2 13 C1.01 13.33 0.02 13.66 -1 14 C-1.93385816 11.19842552 -2.16354595 9.34552197 -2.1875 6.4375 C-2.20167969 5.65246094 -2.21585937 4.86742188 -2.23046875 4.05859375 C-2 2 -2 2 0 0 Z " fill="#1E1E95" transform="translate(107,79)"/>
<path d="M0 0 C0 3.63 0 7.26 0 11 C-0.598125 10.236875 -1.19625 9.47375 -1.8125 8.6875 C-3.84004112 6.08664741 -3.84004112 6.08664741 -5.75 4.3125 C-7 3 -7 3 -7 1 C-3.375 -1.125 -3.375 -1.125 0 0 Z " fill="#E3E3F1" transform="translate(125,67)"/>
<path d="M0 0 C2.16874252 0.50603992 3.99967627 0.99983813 6 2 C4.66511872 5.59391114 3.03977277 8.75490696 1 12 C0.03929566 9.11788698 -0.10581883 7.30149956 -0.0625 4.3125 C-0.05347656 3.50425781 -0.04445312 2.69601563 -0.03515625 1.86328125 C-0.02355469 1.24839844 -0.01195312 0.63351563 0 0 Z " fill="#E5E5F2" transform="translate(131,66)"/>
<path d="M0 0 C0 0.66 0 1.32 0 2 C-1.7015625 2.680625 -1.7015625 2.680625 -3.4375 3.375 C-7.04721692 4.57095806 -7.04721692 4.57095806 -8 7 C-8.99 7 -9.98 7 -11 7 C-8.61929494 1.6891964 -6.01794428 -1.80538328 0 0 Z " fill="#1F1F96" transform="translate(125,64)"/>
<path d="M0 0 C3.3 0.99 6.6 1.98 10 3 C10.33 2.34 10.66 1.68 11 1 C10.67 2.65 10.34 4.3 10 6 C8.68 6.33 7.36 6.66 6 7 C4.02 4.69 2.04 2.38 0 0 Z " fill="#E3E3F1" transform="translate(135,91)"/>
<path d="M0 0 C-1.09283577 1.03295436 -2.19970579 2.05107835 -3.3125 3.0625 C-3.92738281 3.63097656 -4.54226562 4.19945313 -5.17578125 4.78515625 C-5.77777344 5.18605469 -6.37976563 5.58695312 -7 6 C-7.99 5.67 -8.98 5.34 -10 5 C-10.33 3.35 -10.66 1.7 -11 0 C-10.67 0.66 -10.34 1.32 -10 2 C-9.44570312 1.77183594 -8.89140625 1.54367188 -8.3203125 1.30859375 C-7.59585938 1.02113281 -6.87140625 0.73367187 -6.125 0.4375 C-5.40570313 0.14746094 -4.68640625 -0.14257812 -3.9453125 -0.44140625 C-2 -1 -2 -1 0 0 Z " fill="#E3E3F1" transform="translate(121,92)"/>
<path d="M0 0 C2.75 -0.3125 2.75 -0.3125 6 0 C8.375 2.5 8.375 2.5 10 5 C8.35 4.67 6.7 4.34 5 4 C5 4.99 5 5.98 5 7 C2.5 5.1875 2.5 5.1875 0 3 C0 2.01 0 1.02 0 0 Z " fill="#6666B7" transform="translate(131,88)"/>
<path d="M0 0 C2.625 0.9375 2.625 0.9375 5 2 C4.34 3.65 3.68 5.3 3 7 C2.67 6.01 2.34 5.02 2 4 C0.68 4.99 -0.64 5.98 -2 7 C-1.67 5.68 -1.34 4.36 -1 3 C-2.32 3.33 -3.64 3.66 -5 4 C-3.36587557 2.29159719 -2.13093906 1.06546953 0 0 Z " fill="#4F4FAD" transform="translate(120,89)"/>
<path d="M0 0 C2 3 2 3 2 6 C2.99 6.33 3.98 6.66 5 7 C4.01 7.495 4.01 7.495 3 8 C2.67 8.66 2.34 9.32 2 10 C-3.57142857 4.85714286 -3.57142857 4.85714286 -4 1 C-2.68 1.99 -1.36 2.98 0 4 C0 2.68 0 1.36 0 0 Z " fill="#5252AE" transform="translate(124,71)"/>
<path d="M0 0 C7.42857143 -0.28571429 7.42857143 -0.28571429 11 2 C10 4 10 4 8.125 4.8125 C7.42375 4.874375 6.7225 4.93625 6 5 C4.4375 3.5625 4.4375 3.5625 3 2 C2.01 2 1.02 2 0 2 C0 1.34 0 0.68 0 0 Z " fill="#8080C3" transform="translate(119,88)"/>
<path d="M0 0 C2.15377564 2.62198774 3.40072174 4.64404172 4 8 C3.34 8 2.68 8 2 8 C1.67 9.32 1.34 10.64 1 12 C0.63762737 10.37681021 0.28534843 8.7513642 -0.0625 7.125 C-0.25972656 6.22007813 -0.45695313 5.31515625 -0.66015625 4.3828125 C-1 2 -1 2 0 0 Z " fill="#4B4BAA" transform="translate(130,88)"/>
<path d="M0 0 C0 0.66 0 1.32 0 2 C0.99 2.66 1.98 3.32 3 4 C-3.75 5.125 -3.75 5.125 -6 4 C-2.25 0 -2.25 0 0 0 Z " fill="#9F9FD2" transform="translate(141,78)"/>
<path d="M0 0 C2.31 1.98 4.62 3.96 7 6 C6.67 6.99 6.34 7.98 6 9 C3.525 8.01 3.525 8.01 1 7 C1.99 6.67 2.98 6.34 4 6 C3.34 5.38125 2.68 4.7625 2 4.125 C0 2 0 2 0 0 Z " fill="#5C5CB2" transform="translate(116,73)"/>
<path d="M0 0 C4.455 0.99 4.455 0.99 9 2 C8.67 2.99 8.34 3.98 8 5 C4.35446828 3.7191375 2.83328987 2.83328987 0 0 Z " fill="#FBFBFC" transform="translate(137,89)"/>
<path d="M0 0 C-5.75 4 -5.75 4 -8 4 C-8.33 3.01 -8.66 2.02 -9 1 C-3.375 -1.125 -3.375 -1.125 0 0 Z " fill="#FBFBFC" transform="translate(119,90)"/>
<path d="M0 0 C2.29633824 3.44450737 2.54016485 5.93812283 3 10 C2.01 10 1.02 10 0 10 C0 6.7 0 3.4 0 0 Z " fill="#F7F7FB" transform="translate(129,94)"/>
<path d="M0 0 C0.99 0 1.98 0 3 0 C2.34 3.3 1.68 6.6 1 10 C0.67 10 0.34 10 0 10 C0 6.7 0 3.4 0 0 Z " fill="#F7F7FB" transform="translate(129,67)"/>
</svg>
