<?xml version="1.0" encoding="UTF-8"?>
<svg version="1.1" xmlns="http://www.w3.org/2000/svg" width="256" height="171">
<path d="M0 0 C84.48 0 168.96 0 256 0 C256 56.43 256 112.86 256 171 C171.52 171 87.04 171 0 171 C0 114.57 0 58.14 0 0 Z " fill="#FDFDFD" transform="translate(0,0)"/>
<path d="M0 0 C2.30630956 1.73665505 4.48378837 3.55950071 6.65234375 5.46484375 C7.34328125 6.03847656 8.03421875 6.61210938 8.74609375 7.203125 C17.62649722 15.17841042 23.0786401 27.196226 23.8984375 39.01171875 C24.51004309 53.60466384 21.09368846 66.96223343 11.32421875 78.125 C0.04923162 89.86689611 -12.16738566 95.17272247 -28.47265625 95.77734375 C-42.84423419 95.61253208 -54.31448477 89.3972741 -64.66015625 79.77734375 C-74.6591124 69.30224683 -78.87739199 55.79666691 -78.76953125 41.52197266 C-78.23531765 26.7151181 -71.54214605 14.76862094 -60.9765625 4.72265625 C-44.16604091 -9.7149091 -18.87919987 -12.34530042 0 0 Z " fill="#BB012D" transform="translate(155.34765625,41.53515625)"/>
</svg>
