<?xml version="1.0" encoding="UTF-8"?>
<svg version="1.1" xmlns="http://www.w3.org/2000/svg" width="256" height="128">
<path d="M0 0 C84.48 0 168.96 0 256 0 C256 42.24 256 84.48 256 128 C171.52 128 87.04 128 0 128 C0 85.76 0 43.52 0 0 Z " fill="#017A3E" transform="translate(0,0)"/>
<path d="M0 0 C84.48 0 168.96 0 256 0 C256 14.19 256 28.38 256 43 C190.99 43.33 125.98 43.66 59 44 C71.95342644 53.56419482 71.95342644 53.56419482 85 63 C85 63.66 85 64.32 85 65 C83.58911133 66.25830078 83.58911133 66.25830078 81.58203125 67.6953125 C80.83308594 68.23800781 80.08414063 68.78070313 79.3125 69.33984375 C78.4875 69.92894531 77.6625 70.51804687 76.8125 71.125 C75.05742772 72.39682998 73.30356404 73.6703291 71.55078125 74.9453125 C70.63506348 75.61079102 69.7193457 76.27626953 68.77587891 76.96191406 C64.30306545 80.24591114 59.90251451 83.62267236 55.5 87 C48.12465054 92.64646624 40.69082317 98.20171603 33.19482422 103.68676758 C26.03150569 108.9424224 18.97324217 114.33223823 11.93945312 119.75976562 C11.10607422 120.39978516 10.27269531 121.03980469 9.4140625 121.69921875 C8.6813916 122.26471436 7.9487207 122.83020996 7.19384766 123.4128418 C4.88965371 125.07983099 2.43868376 126.53678975 0 128 C0 85.76 0 43.52 0 0 Z " fill="#000000" transform="translate(0,0)"/>
<path d="M0 0 C65.34 0 130.68 0 198 0 C198 13.86 198 27.72 198 42 C132.66 42 67.32 42 0 42 C3.24133177 38.75866823 5.94432155 36.13702994 9.5390625 33.484375 C10.36664063 32.87335938 11.19421875 32.26234375 12.046875 31.6328125 C12.89765625 31.01148437 13.7484375 30.39015625 14.625 29.75 C15.48351562 29.11320312 16.34203125 28.47640625 17.2265625 27.8203125 C23.61617289 23.12794237 23.61617289 23.12794237 27 22 C27 21.34 27 20.68 27 20 C26.14631836 19.60143799 26.14631836 19.60143799 25.27539062 19.19482422 C21.04669198 16.9743037 17.33067568 13.96189556 13.5 11.125 C12.64535156 10.49980469 11.79070312 9.87460937 10.91015625 9.23046875 C10.08386719 8.62074219 9.25757812 8.01101562 8.40625 7.3828125 C7.65666016 6.82996582 6.90707031 6.27711914 6.13476562 5.70751953 C4 4 4 4 0 0 Z " fill="#FDFDFD" transform="translate(58,43)"/>
<path d="M0 0 C6.01942137 4.01294758 11.73569909 8.02329619 17.375 12.5 C24.60317301 18.18369812 31.93636858 23.70071422 39.36669922 29.1171875 C40.10291504 29.65472656 40.83913086 30.19226563 41.59765625 30.74609375 C42.29667085 31.24134521 42.99568544 31.73659666 43.7158823 32.24685574 C46 34 46 34 47.71407223 35.81784916 C54.01213988 42.06843358 60.50545728 41.90296408 68.87550354 41.93440247 C70.74130793 41.9190755 72.60710691 41.90307725 74.47290039 41.88647461 C76.45451246 41.89436967 78.4361143 41.90533499 80.41769409 41.91912842 C85.77885247 41.94779135 91.13913513 41.93365105 96.50029302 41.91168666 C102.10975491 41.89602995 107.71904669 41.91992972 113.32847595 41.93959045 C123.94244275 41.97080364 134.55608594 41.96656562 145.17007297 41.94951588 C157.25717954 41.93183149 169.34411315 41.95378219 181.43119442 41.97902286 C206.28752078 42.03004281 231.14365077 42.03141666 256 42 C256 42.33 256 42.66 256 43 C190.99 43.33 125.98 43.66 59 44 C71.95342644 53.56419482 71.95342644 53.56419482 85 63 C85 63.66 85 64.32 85 65 C83.58911133 66.25830078 83.58911133 66.25830078 81.58203125 67.6953125 C80.83308594 68.23800781 80.08414063 68.78070313 79.3125 69.33984375 C78.4875 69.92894531 77.6625 70.51804687 76.8125 71.125 C75.05742772 72.39682998 73.30356404 73.6703291 71.55078125 74.9453125 C70.63506348 75.61079102 69.7193457 76.27626953 68.77587891 76.96191406 C64.30306545 80.24591114 59.90251451 83.62267236 55.5 87 C48.12465054 92.64646624 40.69082317 98.20171603 33.19482422 103.68676758 C26.03150569 108.9424224 18.97324217 114.33223823 11.93945312 119.75976562 C11.10607422 120.39978516 10.27269531 121.03980469 9.4140625 121.69921875 C8.6813916 122.26471436 7.9487207 122.83020996 7.19384766 123.4128418 C4.88965371 125.07983099 2.43868376 126.53678975 0 128 C0 85.76 0 43.52 0 0 Z " fill="#C91327" transform="translate(0,0)"/>
</svg>
