<?xml version="1.0" encoding="UTF-8"?>
<svg version="1.1" xmlns="http://www.w3.org/2000/svg" width="256" height="171">
<path d="M0 0 C84.48 0 168.96 0 256 0 C256 56.43 256 112.86 256 171 C171.52 171 87.04 171 0 171 C0 114.57 0 58.14 0 0 Z " fill="#FDC300" transform="translate(0,0)"/>
<path d="M0 0 C84.48 0 168.96 0 256 0 C256 14.19 256 28.38 256 43 C171.52 43 87.04 43 0 43 C0 28.81 0 14.62 0 0 Z " fill="#C60C1D" transform="translate(0,128)"/>
<path d="M0 0 C84.48 0 168.96 0 256 0 C256 14.19 256 28.38 256 43 C171.52 43 87.04 43 0 43 C0 28.81 0 14.62 0 0 Z " fill="#C50B1D" transform="translate(0,0)"/>
<path d="M0 0 C0.99 0 1.98 0 3 0 C3 0.66 3 1.32 3 2 C3.969375 1.979375 4.93875 1.95875 5.9375 1.9375 C9 2 9 2 10 3 C11.51165654 3.39148761 13.03469632 3.73972457 14.5625 4.0625 C15.38878906 4.23910156 16.21507812 4.41570313 17.06640625 4.59765625 C17.70449219 4.73042969 18.34257813 4.86320312 19 5 C19.495 8.465 19.495 8.465 20 12 C19.01 12.33 18.02 12.66 17 13 C17 13.66 17 14.32 17 15 C15.68799596 16.35432675 14.35368596 17.68733482 13 19 C12.67 19.66 12.34 20.32 12 21 C14.31 21 16.62 21 19 21 C19 24.63 19 28.26 19 32 C20.65 32 22.3 32 24 32 C23.505 24.575 23.505 24.575 23 17 C25.31 17 27.62 17 30 17 C31.16306443 20.54950034 30.92365049 23.55823948 30.5625 27.25 C30.46066406 28.32765625 30.35882813 29.4053125 30.25390625 30.515625 C30.17011719 31.33546875 30.08632812 32.1553125 30 33 C31.32 33.33 32.64 33.66 34 34 C33.34 35.65 32.68 37.3 32 39 C31.34 39 30.68 39 30 39 C30 38.01 30 37.02 30 36 C26.37 35.67 22.74 35.34 19 35 C19.04640625 36.31355469 19.0928125 37.62710938 19.140625 38.98046875 C19.17815266 40.71612304 19.21455175 42.45180199 19.25 44.1875 C19.28351563 45.05181641 19.31703125 45.91613281 19.3515625 46.80664062 C19.41590621 51.00506768 19.39943778 53.34590998 17.16796875 57 C11.34196529 62.37461941 5.71136821 62.32795024 -1.9140625 62.30078125 C-5 62 -5 62 -10 60 C-10 53.4 -10 46.8 -10 40 C-10.66 40 -11.32 40 -12 40 C-12 45.94 -12 51.88 -12 58 C-12.66 57.67 -13.32 57.34 -14 57 C-14 51.39 -14 45.78 -14 40 C-14.66 40 -15.32 40 -16 40 C-16.33 38.68 -16.66 37.36 -17 36 C-20.3 36 -23.6 36 -27 36 C-27 36.99 -27 37.98 -27 39 C-28.32 38.34 -29.64 37.68 -31 37 C-30.625 35.0625 -30.625 35.0625 -30 33 C-27.23547967 31.61773984 -24.9538637 31.90474613 -21.875 31.9375 C-20.77929688 31.94652344 -19.68359375 31.95554687 -18.5546875 31.96484375 C-17.71164063 31.97644531 -16.86859375 31.98804687 -16 32 C-16 28.37 -16 24.74 -16 21 C-14.02 20.67 -12.04 20.34 -10 20 C-10.66 19.21625 -11.32 18.4325 -12 17.625 C-14 15 -14 15 -14 13 C-14.99 12.67 -15.98 12.34 -17 12 C-17 10.02 -17 8.04 -17 6 C-11.55464391 2.61504892 -6.32278971 2.32626495 0 2 C0 1.34 0 0.68 0 0 Z " fill="#993F10" transform="translate(84,56)"/>
<path d="M0 0 C0.99 0 1.98 0 3 0 C3 0.66 3 1.32 3 2 C3.969375 1.979375 4.93875 1.95875 5.9375 1.9375 C9 2 9 2 10 3 C11.51165654 3.39148761 13.03469632 3.73972457 14.5625 4.0625 C15.38878906 4.23910156 16.21507812 4.41570313 17.06640625 4.59765625 C17.70449219 4.73042969 18.34257813 4.86320312 19 5 C19.495 8.465 19.495 8.465 20 12 C19.01 12.33 18.02 12.66 17 13 C17 13.66 17 14.32 17 15 C15.68799596 16.35432675 14.35368596 17.68733482 13 19 C12.67 19.66 12.34 20.32 12 21 C14.31 21 16.62 21 19 21 C19 24.63 19 28.26 19 32 C20.65 32 22.3 32 24 32 C23.505 24.575 23.505 24.575 23 17 C25.31 17 27.62 17 30 17 C31.16306443 20.54950034 30.92365049 23.55823948 30.5625 27.25 C30.46066406 28.32765625 30.35882813 29.4053125 30.25390625 30.515625 C30.17011719 31.33546875 30.08632812 32.1553125 30 33 C31.32 33.33 32.64 33.66 34 34 C33.34 35.65 32.68 37.3 32 39 C31.34 39 30.68 39 30 39 C30 38.01 30 37.02 30 36 C26.37 35.67 22.74 35.34 19 35 C19 36.65 19 38.3 19 40 C17.06440687 40.13504138 15.126128 40.23201129 13.1875 40.3125 C11.56908203 40.39951172 11.56908203 40.39951172 9.91796875 40.48828125 C8.95503906 40.32714844 7.99210937 40.16601562 7 40 C5.30078125 37.54296875 5.30078125 37.54296875 4 35 C2.515 34.505 2.515 34.505 1 34 C1 29.71 1 25.42 1 21 C-0.546875 21.12375 -2.09375 21.2475 -3.6875 21.375 C-8.43554823 21.40193928 -8.43554823 21.40193928 -10.77734375 19.734375 C-14 15.88586957 -14 15.88586957 -14 13 C-14.99 12.67 -15.98 12.34 -17 12 C-17 10.02 -17 8.04 -17 6 C-11.55464391 2.61504892 -6.32278971 2.32626495 0 2 C0 1.34 0 0.68 0 0 Z " fill="#8C4C0A" transform="translate(84,56)"/>
<path d="M0 0 C5.61 0 11.22 0 17 0 C17 4.29 17 8.58 17 13 C18.32 13.33 19.64 13.66 21 14 C23 16 23 16 23 19 C26.96 19 30.92 19 35 19 C35.10853983 21.22808159 35.18583307 23.45769932 35.25 25.6875 C35.29640625 26.92886719 35.3428125 28.17023438 35.390625 29.44921875 C34.93733018 33.5696687 33.89748679 35.10787892 31 38 C28.11138291 39.44430855 26.20352299 39.37688506 23 39 C20.125 36.875 20.125 36.875 18 34 C17.6875 30.6875 17.6875 30.6875 18 28 C20 30 20 30 20.8125 32.5625 C21.76604711 35.21664961 21.76604711 35.21664961 24.375 35.9375 C28.06678824 36.03791835 28.06678824 36.03791835 31 34 C31.88760022 29.48803223 32 25.62120443 32 21 C28.7 21.33 25.4 21.66 22 22 C21.34 20.02 20.68 18.04 20 16 C16.37114676 15.84850702 16.37114676 15.84850702 13 17 C13 12.71 13 8.42 13 4 C12.01 4 11.02 4 10 4 C10 3.34 10 2.68 10 2 C9.34 2 8.68 2 8 2 C8 2.66 8 3.32 8 4 C7.01 4 6.02 4 5 4 C5.01160156 4.68707031 5.02320312 5.37414062 5.03515625 6.08203125 C5.04417969 6.98308594 5.05320312 7.88414063 5.0625 8.8125 C5.07410156 9.70582031 5.08570312 10.59914063 5.09765625 11.51953125 C5 14 5 14 4 17 C6.64 17 9.28 17 12 17 C11.67 23.93 11.34 30.86 11 38 C10.67 38 10.34 38 10 38 C10 31.73 10 25.46 10 19 C9.34 19 8.68 19 8 19 C8 25.6 8 32.2 8 39 C7.34 39 6.68 39 6 39 C6 32.4 6 25.8 6 19 C5.34 19 4.68 19 4 19 C4 24.94 4 30.88 4 37 C3.34 36.67 2.68 36.34 2 36 C2 30.39 2 24.78 2 19 C1.34 19 0.68 19 0 19 C-0.33 17.68 -0.66 16.36 -1 15 C-4.3 15 -7.6 15 -11 15 C-11 15.99 -11 16.98 -11 18 C-12.32 17.34 -13.64 16.68 -15 16 C-14.625 14.0625 -14.625 14.0625 -14 12 C-11.23547967 10.61773984 -8.9538637 10.90474613 -5.875 10.9375 C-4.77929688 10.94652344 -3.68359375 10.95554687 -2.5546875 10.96484375 C-1.71164063 10.97644531 -0.86859375 10.98804687 0 11 C0 7.37 0 3.74 0 0 Z " fill="#A11616" transform="translate(68,77)"/>
<path d="M0 0 C2.31 0 4.62 0 7 0 C8.16306443 3.54950034 7.92365049 6.55823948 7.5625 10.25 C7.46066406 11.32765625 7.35882813 12.4053125 7.25390625 13.515625 C7.17011719 14.33546875 7.08632812 15.1553125 7 16 C8.32 16.33 9.64 16.66 11 17 C10.34 18.65 9.68 20.3 9 22 C8.34 22 7.68 22 7 22 C7 21.01 7 20.02 7 19 C3.37 18.67 -0.26 18.34 -4 18 C-4 19.65 -4 21.3 -4 23 C-5.93559313 23.13504138 -7.873872 23.23201129 -9.8125 23.3125 C-11.43091797 23.39951172 -11.43091797 23.39951172 -13.08203125 23.48828125 C-14.04496094 23.32714844 -15.00789063 23.16601562 -16 23 C-17.69921875 20.54296875 -17.69921875 20.54296875 -19 18 C-19.99 17.67 -20.98 17.34 -22 17 C-22 12.71 -22 8.42 -22 4 C-16.06 4 -10.12 4 -4 4 C-4 7.63 -4 11.26 -4 15 C-2.35 15 -0.7 15 1 15 C0.67 10.05 0.34 5.1 0 0 Z " fill="#A89209" transform="translate(107,73)"/>
<path d="M0 0 C0.99 0 1.98 0 3 0 C3 0.66 3 1.32 3 2 C3.969375 1.979375 4.93875 1.95875 5.9375 1.9375 C9 2 9 2 10 3 C11.51165654 3.39148761 13.03469632 3.73972457 14.5625 4.0625 C15.38878906 4.23910156 16.21507812 4.41570313 17.06640625 4.59765625 C17.70449219 4.73042969 18.34257813 4.86320312 19 5 C19.495 8.465 19.495 8.465 20 12 C19.01 12.66 18.02 13.32 17 14 C16.01 13.67 15.02 13.34 14 13 C14.66 12.67 15.32 12.34 16 12 C15.505 10.515 15.505 10.515 15 9 C13.68 9 12.36 9 11 9 C10.01 10.485 10.01 10.485 9 12 C9 10.68 9 9.36 9 8 C6.03 7.505 6.03 7.505 3 7 C3.33 8.98 3.66 10.96 4 13 C2.68 13 1.36 13 0 13 C-1.24546405 10.50907189 -0.7767578 9.58919267 0 7 C-0.59167969 7.13277344 -1.18335937 7.26554687 -1.79296875 7.40234375 C-2.58316406 7.57894531 -3.37335938 7.75554688 -4.1875 7.9375 C-5.00863281 8.12183594 -5.82976562 8.30617188 -6.67578125 8.49609375 C-8.40078897 8.87008702 -10.1360182 9.19756838 -11.875 9.5 C-14.28221897 9.93581421 -14.28221897 9.93581421 -17 12 C-17 10.02 -17 8.04 -17 6 C-11.55464391 2.61504892 -6.32278971 2.32626495 0 2 C0 1.34 0 0.68 0 0 Z " fill="#B09217" transform="translate(84,56)"/>
<path d="M0 0 C2.97 0 5.94 0 9 0 C9 0.66 9 1.32 9 2 C8.34 2.66 7.68 3.32 7 4 C6.01 4 5.02 4 4 4 C2.35920758 5.64079242 2.39887658 7.77768765 2 10 C4.79138476 9.21790359 7.4393413 8.37216732 10 7 C11.23000198 4.52429495 11.23000198 4.52429495 11 2 C10.67 1.34 10.34 0.68 10 0 C11.98 0 13.96 0 16 0 C16 5.94 16 11.88 16 18 C8.53422053 18.4391635 8.53422053 18.4391635 5 18 C2.9375 15.5625 2.9375 15.5625 2 13 C1.34 12.67 0.68 12.34 0 12 C0 8.04 0 4.08 0 0 Z " fill="#BB7896" transform="translate(86,78)"/>
<path d="M0 0 C2.97 0 5.94 0 9 0 C10.54462854 10.34901122 10.54462854 10.34901122 8 14 C5.1875 15.5 5.1875 15.5 2 16 C-0.8125 15.0625 -0.8125 15.0625 -3 13 C-3.70588742 9.90495518 -4 7.16313788 -4 4 C-3.34 4 -2.68 4 -2 4 C-1.67 5.32 -1.34 6.64 -1 8 C-1.020625 7.195625 -1.04125 6.39125 -1.0625 5.5625 C-1 3 -1 3 0 2 C0 1.34 0 0.68 0 0 Z " fill="#BC7209" transform="translate(91,98)"/>
<path d="M0 0 C0.66 0 1.32 0 2 0 C2 6.27 2 12.54 2 19 C2.66 19 3.32 19 4 19 C4 13.72 4 8.44 4 3 C4.33 3 4.66 3 5 3 C5 7.95 5 12.9 5 18 C6.65 16.68 8.3 15.36 10 14 C10.763125 14.78375 11.52625 15.5675 12.3125 16.375 C14.90891805 19.07257717 14.90891805 19.07257717 18 21 C15.16239474 22.41880263 12.72317025 22.1320472 9.5625 22.125 C8.40878906 22.12757812 7.25507812 22.13015625 6.06640625 22.1328125 C3 22 3 22 0 21 C0 14.07 0 7.14 0 0 Z " fill="#B5A131" transform="translate(76,96)"/>
<path d="M0 0 C0.66 0 1.32 0 2 0 C2 0.66 2 1.32 2 2 C2.99 2 3.98 2 5 2 C5.02686553 3.97909398 5.04633375 5.95828971 5.0625 7.9375 C5.07410156 9.03964844 5.08570312 10.14179687 5.09765625 11.27734375 C5 14 5 14 4 15 C1.32941149 15.14115161 -1.32432238 15.04247107 -4 15 C-4.02696365 13.20841511 -4.04637917 11.41671527 -4.0625 9.625 C-4.07410156 8.62726563 -4.08570312 7.62953125 -4.09765625 6.6015625 C-4 4 -4 4 -3 2 C-2.01 2 -1.02 2 0 2 C0 1.34 0 0.68 0 0 Z " fill="#7F6D02" transform="translate(76,79)"/>
<path d="M0 0 C5.94 0 11.88 0 18 0 C18 6.27 18 12.54 18 19 C17.67 19 17.34 19 17 19 C17 13.06 17 7.12 17 1 C15.35 1.33 13.7 1.66 12 2 C12.33 2.66 12.66 3.32 13 4 C12.5625 6.5 12.5625 6.5 11 9 C8.33113635 10.0708068 5.85848922 10.49284869 3 11 C3 8.69 3 6.38 3 4 C3.66 3.67 4.32 3.34 5 3 C5.66 3.66 6.32 4.32 7 5 C7.33 4.34 7.66 3.68 8 3 C8.66 3 9.32 3 10 3 C10 2.34 10 1.68 10 1 C7.03 1 4.06 1 1 1 C1 4.96 1 8.92 1 13 C0.67 13 0.34 13 0 13 C0 8.71 0 4.42 0 0 Z " fill="#AD7E81" transform="translate(85,77)"/>
<path d="M0 0 C0.94875 0.165 1.8975 0.33 2.875 0.5 C5.80168901 1.0526635 5.80168901 1.0526635 8 1 C9.66965451 1.31802943 11.33678518 1.64984951 13 2 C13.33 3.65 13.66 5.3 14 7 C8 10 8 10 5.8359375 9.44140625 C5.02382812 9.15136719 4.21171875 8.86132812 3.375 8.5625 C2.55773437 8.27503906 1.74046875 7.98757812 0.8984375 7.69140625 C0.27195312 7.46324219 -0.35453125 7.23507813 -1 7 C-0.34 6.67 0.32 6.34 1 6 C0.67 4.02 0.34 2.04 0 0 Z " fill="#97480E" transform="translate(87,63)"/>
<path d="M0 0 C0.10853983 2.22808159 0.18583307 4.45769932 0.25 6.6875 C0.29640625 7.92886719 0.3428125 9.17023438 0.390625 10.44921875 C-0.06266982 14.5696687 -1.10251321 16.10787892 -4 19 C-6.88861709 20.44430855 -8.79647701 20.37688506 -12 20 C-14.875 17.875 -14.875 17.875 -17 15 C-17.3125 11.6875 -17.3125 11.6875 -17 9 C-15 11 -15 11 -14.1875 13.5625 C-13.23395289 16.21664961 -13.23395289 16.21664961 -10.625 16.9375 C-6.93321176 17.03791835 -6.93321176 17.03791835 -4 15 C-3.13839029 10.62015065 -2.86049087 6.46429222 -3 2 C-5.97 2 -8.94 2 -12 2 C-12 1.67 -12 1.34 -12 1 C-10.18755015 0.83278881 -8.37503867 0.66624559 -6.5625 0.5 C-5.55316406 0.4071875 -4.54382813 0.314375 -3.50390625 0.21875 C-1 0 -1 0 0 0 Z " fill="#AB2D13" transform="translate(103,96)"/>
<path d="M0 0 C0.33 1.65 0.66 3.3 1 5 C-9 7 -9 7 -11.64453125 7.44140625 C-14.2490042 7.91485939 -14.2490042 7.91485939 -17 10 C-17 8.02 -17 6.04 -17 4 C-11.08466019 0.83598103 -6.67953919 -0.15533812 0 0 Z " fill="#BE9916" transform="translate(84,58)"/>
<path d="M0 0 C1.98 0 3.96 0 6 0 C6 5.94 6 11.88 6 18 C2.37 18 -1.26 18 -5 18 C-5 17.01 -5 16.02 -5 15 C-3.1875 14.375 -3.1875 14.375 -1 14 C-0.01 14.66 0.98 15.32 2 16 C1.979375 15.2575 1.95875 14.515 1.9375 13.75 C1.99426843 11.25218907 2.32958438 9.38369998 3 7 C3.34060811 5.33480481 3.67558396 3.66842534 4 2 C2.68 1.67 1.36 1.34 0 1 C0 0.67 0 0.34 0 0 Z " fill="#C9C8C8" transform="translate(96,78)"/>
<path d="M0 0 C0.33 0 0.66 0 1 0 C1 6.27 1 12.54 1 19 C0.34 17.68 -0.32 16.36 -1 15 C-4.3 15 -7.6 15 -11 15 C-11 15.99 -11 16.98 -11 18 C-12.32 17.34 -13.64 16.68 -15 16 C-14.625 14.0625 -14.625 14.0625 -14 12 C-11.23547967 10.61773984 -8.9538637 10.90474613 -5.875 10.9375 C-4.77929688 10.94652344 -3.68359375 10.95554687 -2.5546875 10.96484375 C-1.71164063 10.97644531 -0.86859375 10.98804687 0 11 C0 7.37 0 3.74 0 0 Z " fill="#A43013" transform="translate(68,77)"/>
<path d="M0 0 C2.625 0.9375 2.625 0.9375 5 2 C5.125 7.75 5.125 7.75 4 10 C2.02 10 0.04 10 -2 10 C-3.125 4.375 -3.125 4.375 -2 1 C-1.34 0.67 -0.68 0.34 0 0 Z " fill="#A79109" transform="translate(59,72)"/>
<path d="M0 0 C2.97 0 5.94 0 9 0 C9 0.66 9 1.32 9 2 C8.34 2.66 7.68 3.32 7 4 C6.01 4 5.02 4 4 4 C2.35920758 5.64079242 2.39887658 7.77768765 2 10 C3.98 9.67 5.96 9.34 8 9 C7.67 9.66 7.34 10.32 7 11 C6.34 11 5.68 11 5 11 C5 11.66 5 12.32 5 13 C3.35 12.67 1.7 12.34 0 12 C0 8.04 0 4.08 0 0 Z " fill="#C5C4C4" transform="translate(86,78)"/>
<path d="M0 0 C2.5 0.125 2.5 0.125 3.5 1.125 C3.6875 4.0625 3.6875 4.0625 3.5 7.125 C2.84 7.785 2.18 8.445 1.5 9.125 C-2.03571429 8.58928571 -2.03571429 8.58928571 -3.5 7.125 C-3.625 4.125 -3.625 4.125 -3.5 1.125 C-2.5 0.125 -2.5 0.125 0 0 Z " fill="#2B5B78" transform="translate(85.5,91.875)"/>
<path d="M0 0 C0.33 0.66 0.66 1.32 1 2 C1.56203125 1.80535156 2.1240625 1.61070313 2.703125 1.41015625 C5.52615562 0.90604364 7.07636135 1.45454461 9.75 2.4375 C10.54921875 2.72496094 11.3484375 3.01242188 12.171875 3.30859375 C13.07679687 3.65083984 13.07679687 3.65083984 14 4 C14.66 3.34 15.32 2.68 16 2 C17 5 17 5 16.0625 7.1875 C15.711875 7.785625 15.36125 8.38375 15 9 C12 8 9 7 6 6 C6 5.34 6 4.68 6 4 C5.01 4 4.02 4 3 4 C3 4.66 3 5.32 3 6 C2.01 6 1.02 6 0 6 C0 4.02 0 2.04 0 0 Z " fill="#9F840C" transform="translate(81,68)"/>
<path d="M0 0 C0.66 0.66 1.32 1.32 2 2 C1.01 3.485 1.01 3.485 0 5 C-0.66 5 -1.32 5 -2 5 C-2 5.66 -2 6.32 -2 7 C-1.34 7 -0.68 7 0 7 C1.625 9.5 1.625 9.5 3 12 C-2.75 13.125 -2.75 13.125 -5 12 C-5 8.7 -5 5.4 -5 2 C-2.525 2.495 -2.525 2.495 0 3 C0 2.01 0 1.02 0 0 Z " fill="#B6500E" transform="translate(95,99)"/>
<path d="M0 0 C1.74965358 -0.05429959 3.49979787 -0.09292823 5.25 -0.125 C6.22453125 -0.14820312 7.1990625 -0.17140625 8.203125 -0.1953125 C11.0196498 0.00137219 12.60949036 0.55431084 15 2 C14.34 3.65 13.68 5.3 13 7 C12.34 7 11.68 7 11 7 C11 6.01 11 5.02 11 4 C7.37 3.67 3.74 3.34 0 3 C0 2.01 0 1.02 0 0 Z " fill="#AB3913" transform="translate(103,88)"/>
<path d="M0 0 C6.40818182 -0.36272727 6.40818182 -0.36272727 8.9375 1.1875 C10.37794659 3.64473241 10.4305182 5.20163168 10 8 C9.01 8.66 8.02 9.32 7 10 C6.01 9.67 5.02 9.34 4 9 C4.66 8.67 5.32 8.34 6 8 C5.67 7.01 5.34 6.02 5 5 C2.98491642 4.26676204 2.98491642 4.26676204 1 4 C0.67 2.68 0.34 1.36 0 0 Z " fill="#CFA411" transform="translate(94,60)"/>
<path d="M0 0 C1.98 0.66 3.96 1.32 6 2 C6 4.64 6 7.28 6 10 C4.02 10 2.04 10 0 10 C0 6.7 0 3.4 0 0 Z " fill="#AAA28F" transform="translate(108,99)"/>
<path d="M0 0 C0 3.3 0 6.6 0 10 C-1.98 10 -3.96 10 -6 10 C-6 7.36 -6 4.72 -6 2 C-1.125 0 -1.125 0 0 0 Z " fill="#A9A28D" transform="translate(63,99)"/>
<path d="M0 0 C0.66 0 1.32 0 2 0 C2 1.65 2 3.3 2 5 C1.16855469 5.38091797 1.16855469 5.38091797 0.3203125 5.76953125 C-0.76636719 6.28580078 -0.76636719 6.28580078 -1.875 6.8125 C-2.59429687 7.14894531 -3.31359375 7.48539062 -4.0546875 7.83203125 C-6.30542806 8.99467097 -6.30542806 8.99467097 -8 12 C-9 11 -9 11 -9.0625 8.4375 C-9.041875 7.633125 -9.02125 6.82875 -9 6 C-6.03 5.01 -3.06 4.02 0 3 C0 2.01 0 1.02 0 0 Z " fill="#A5271B" transform="translate(63,93)"/>
<path d="M0 0 C3.63 0 7.26 0 11 0 C11 1.32 11 2.64 11 4 C7.37 4 3.74 4 0 4 C0 2.68 0 1.36 0 0 Z " fill="#527592" transform="translate(105,113)"/>
<path d="M0 0 C0.66 0 1.32 0 2 0 C2 0.99 2 1.98 2 3 C2.928125 3.28875 3.85625 3.5775 4.8125 3.875 C8 5 8 5 11 7 C10.67 8.65 10.34 10.3 10 12 C9.34 11.01 8.68 10.02 8 9 C6.0533929 7.78581167 6.0533929 7.78581167 3.875 6.8125 C3.15054688 6.46832031 2.42609375 6.12414062 1.6796875 5.76953125 C1.12539062 5.51558594 0.57109375 5.26164062 0 5 C0 3.35 0 1.7 0 0 Z " fill="#A5251A" transform="translate(106,93)"/>
<path d="M0 0 C3.3 0 6.6 0 10 0 C10 1.32 10 2.64 10 4 C6.7 4 3.4 4 0 4 C0 2.68 0 1.36 0 0 Z " fill="#4B739B" transform="translate(55,113)"/>
<path d="M0 0 C2.03833424 1.2739589 4.03852126 2.61061923 6 4 C6 4.66 6 5.32 6 6 C7.32 6 8.64 6 10 6 C10 6.99 10 7.98 10 9 C8.02 9.99 8.02 9.99 6 11 C1 5.25 1 5.25 1 3 C0.34 3 -0.32 3 -1 3 C-0.67 2.01 -0.34 1.02 0 0 Z " fill="#A37E08" transform="translate(69,66)"/>
<path d="M0 0 C0.33 0.66 0.66 1.32 1 2 C1.5775 1.773125 2.155 1.54625 2.75 1.3125 C5 1 5 1 7.25 2.4375 C7.8275 2.953125 8.405 3.46875 9 4 C6.11584117 5.44207941 3.58278472 5.09394887 0.375 5.0625 C-0.81351562 5.05347656 -2.00203125 5.04445313 -3.2265625 5.03515625 C-4.14179687 5.02355469 -5.05703125 5.01195313 -6 5 C-4.6875 3.5 -4.6875 3.5 -3 2 C-2.01 2 -1.02 2 0 2 C0 1.34 0 0.68 0 0 Z " fill="#BAA96F" transform="translate(85,113)"/>
<path d="M0 0 C1.98 0 3.96 0 6 0 C6 1.98 6 3.96 6 6 C4.02 6 2.04 6 0 6 C0 4.02 0 2.04 0 0 Z " fill="#B8B3A9" transform="translate(108,82)"/>
<path d="M0 0 C1.98 0 3.96 0 6 0 C6 1.98 6 3.96 6 6 C4.02 6 2.04 6 0 6 C0 4.02 0 2.04 0 0 Z " fill="#B9B3A9" transform="translate(57,82)"/>
<path d="M0 0 C2.97 0.495 2.97 0.495 6 1 C6 2.98 6 4.96 6 7 C3.83125748 6.49396008 2.00032373 6.00016187 0 5 C0 3.35 0 1.7 0 0 Z " fill="#B5ADA8" transform="translate(108,91)"/>
<path d="M0 0 C0.99 0 1.98 0 3 0 C3 1.65 3 3.3 3 5 C3.66 4.67 4.32 4.34 5 4 C4.67 4.99 4.34 5.98 4 7 C-1.75 8.125 -1.75 8.125 -4 7 C-3.67 6.34 -3.34 5.68 -3 5 C-2.34 5.33 -1.68 5.66 -1 6 C-1.309375 5.071875 -1.309375 5.071875 -1.625 4.125 C-1.810625 3.073125 -1.810625 3.073125 -2 2 C-1.34 1.34 -0.68 0.68 0 0 Z " fill="#982A10" transform="translate(81,63)"/>
<path d="M0 0 C0 1.65 0 3.3 0 5 C-1.98 5.66 -3.96 6.32 -6 7 C-6 5.02 -6 3.04 -6 1 C-3 0 -3 0 0 0 Z " fill="#B7B1AD" transform="translate(63,91)"/>
<path d="M0 0 C2.625 0.9375 2.625 0.9375 5 2 C5 2.66 5 3.32 5 4 C4.34 4 3.68 4 3 4 C3 4.66 3 5.32 3 6 C1.68 6 0.36 6 -1 6 C-1 5.34 -1 4.68 -1 4 C-1.66 4 -2.32 4 -3 4 C-2.67 3.01 -2.34 2.02 -2 1 C-1.34 0.67 -0.68 0.34 0 0 Z " fill="#8C5806" transform="translate(59,72)"/>
<path d="M0 0 C2.31 0 4.62 0 7 0 C7.33 0.99 7.66 1.98 8 3 C7.34 3 6.68 3 6 3 C6 3.66 6 4.32 6 5 C4.35 4.67 2.7 4.34 1 4 C0.67 2.68 0.34 1.36 0 0 Z " fill="#8D5B06" transform="translate(107,73)"/>
<path d="M0 0 C2.31 0 4.62 0 7 0 C7.33 1.32 7.66 2.64 8 4 C5.36 4 2.72 4 0 4 C0 2.68 0 1.36 0 0 Z " fill="#A99404" transform="translate(107,109)"/>
<path d="M0 0 C1.98 0 3.96 0 6 0 C6.33 1.32 6.66 2.64 7 4 C4.36 4 1.72 4 -1 4 C-0.67 2.68 -0.34 1.36 0 0 Z " fill="#A69304" transform="translate(57,109)"/>
<path d="M0 0 C2.1875 1.25 2.1875 1.25 4 3 C4 3.99 4 4.98 4 6 C7.63 6 11.26 6 15 6 C15 6.33 15 6.66 15 7 C11.37 7 7.74 7 4 7 C3.67 7.66 3.34 8.32 3 9 C2.7525 8.05125 2.505 7.1025 2.25 6.125 C1.3142923 2.91306809 1.3142923 2.91306809 -1.125 1.625 C-1.74375 1.41875 -2.3625 1.2125 -3 1 C-2.01 0.67 -1.02 0.34 0 0 Z " fill="#871F26" transform="translate(87,90)"/>
<path d="M0 0 C0.99 0 1.98 0 3 0 C3 1.32 3 2.64 3 4 C3.66 4 4.32 4 5 4 C5 4.99 5 5.98 5 7 C3.02 7 1.04 7 -1 7 C-0.67 4.69 -0.34 2.38 0 0 Z " fill="#5D533E" transform="translate(73,87)"/>
<path d="M0 0 C2.125 0.9375 2.125 0.9375 4 2 C4 2.66 4 3.32 4 4 C3.01 4 2.02 4 1 4 C1 4.99 1 5.98 1 7 C-0.32 6.34 -1.64 5.68 -3 5 C-2.625 3.0625 -2.625 3.0625 -2 1 C-1.34 0.67 -0.68 0.34 0 0 Z " fill="#AC3F19" transform="translate(56,88)"/>
<path d="M0 0 C-0.75 4.75 -0.75 4.75 -3 7 C-3 6.01 -3 5.02 -3 4 C-3.99 3.67 -4.98 3.34 -6 3 C-6 2.01 -6 1.02 -6 0 C-3.50907189 -1.24546405 -2.58919267 -0.7767578 0 0 Z " fill="#A71C17" transform="translate(76,65)"/>
<path d="M0 0 C1.65 0.33 3.3 0.66 5 1 C5 2.32 5 3.64 5 5 C2.03 4.505 2.03 4.505 -1 4 C-0.67 2.68 -0.34 1.36 0 0 Z " fill="#A81E17" transform="translate(95,64)"/>
<path d="M0 0 C0.66 0.33 1.32 0.66 2 1 C1.125 5.875 1.125 5.875 0 7 C0 7.66 0 8.32 0 9 C-1.32 9 -2.64 9 -4 9 C-3.6875 5.625 -3.6875 5.625 -3 2 C-2.01 1.34 -1.02 0.68 0 0 Z " fill="#9C510B" transform="translate(79,63)"/>
<path d="M0 0 C2.97 0.495 2.97 0.495 6 1 C5.34 2.32 4.68 3.64 4 5 C3.34 5 2.68 5 2 5 C2 5.66 2 6.32 2 7 C1.01 6.67 0.02 6.34 -1 6 C-0.34 6 0.32 6 1 6 C0.67 4.02 0.34 2.04 0 0 Z " fill="#A61916" transform="translate(87,63)"/>
<path d="M0 0 C1.32 0.33 2.64 0.66 4 1 C3.67 1.99 3.34 2.98 3 4 C2.34 3.67 1.68 3.34 1 3 C1 3.66 1 4.32 1 5 C1.66 5.33 2.32 5.66 3 6 C2.34 6 1.68 6 1 6 C1 6.66 1 7.32 1 8 C1.66 8.33 2.32 8.66 3 9 C2.34 9 1.68 9 1 9 C0.67 9.66 0.34 10.32 0 11 C0 8.69 0 6.38 0 4 C-0.66 4 -1.32 4 -2 4 C-1.34 2.68 -0.68 1.36 0 0 Z " fill="#A62715" transform="translate(89,98)"/>
<path d="M0 0 C2 2 2 2 2.8125 4.5 C3.79728463 7.23553696 3.79728463 7.23553696 6.625 8.3125 C7.40875 8.539375 8.1925 8.76625 9 9 C9 9.33 9 9.66 9 10 C5.625 9.6875 5.625 9.6875 2 9 C-0.29013653 5.5647952 -0.17842973 4.014669 0 0 Z " fill="#A91B19" transform="translate(86,105)"/>
<path d="M0 0 C0.66 0 1.32 0 2 0 C2 2.64 2 5.28 2 8 C1.01 8 0.02 8 -1 8 C-2.2077558 4.37673261 -1.54311128 3.35853631 0 0 Z " fill="#B89DAA" transform="translate(98,80)"/>
<path d="M0 0 C-1.36983503 3.16115776 -1.9890638 3.9927092 -5 6 C-8.1875 6.125 -8.1875 6.125 -11 6 C-9.68 5.67 -8.36 5.34 -7 5 C-7 4.34 -7 3.68 -7 3 C-2.61538462 0 -2.61538462 0 0 0 Z " fill="#A12A1E" transform="translate(102,110)"/>
<path d="M0 0 C0.99 0.33 1.98 0.66 3 1 C3 3.31 3 5.62 3 8 C2.01 8 1.02 8 0 8 C0 5.36 0 2.72 0 0 Z " fill="#C9C9C9" transform="translate(109,100)"/>
<path d="M0 0 C0.66 0.33 1.32 0.66 2 1 C2 3.64 2 6.28 2 9 C1.67 8.34 1.34 7.68 1 7 C0.34 7 -0.32 7 -1 7 C-1 5.35 -1 3.7 -1 2 C-1.66 1.67 -2.32 1.34 -3 1 C-2.01 0.67 -1.02 0.34 0 0 Z " fill="#6C5821" transform="translate(79,82)"/>
<path d="M0 0 C0.66 0 1.32 0 2 0 C2 0.66 2 1.32 2 2 C2.99 2 3.98 2 5 2 C4.67 2.66 4.34 3.32 4 4 C2.00116131 4.34022786 0.00109278 4.67329097 -2 5 C-2.66 5.66 -3.32 6.32 -4 7 C-3.67 5.35 -3.34 3.7 -3 2 C-2.01 2 -1.02 2 0 2 C0 1.34 0 0.68 0 0 Z " fill="#7D3F08" transform="translate(76,79)"/>
<path d="M0 0 C0 2.64 0 5.28 0 8 C-0.99 8 -1.98 8 -3 8 C-3 5.69 -3 3.38 -3 1 C-1 0 -1 0 0 0 Z " fill="#CACACA" transform="translate(61,100)"/>
<path d="M0 0 C0.99 0.33 1.98 0.66 3 1 C3 2.32 3 3.64 3 5 C3.33 5.66 3.66 6.32 4 7 C2.68 6.34 1.36 5.68 0 5 C0 4.34 0 3.68 0 3 C-0.66 3 -1.32 3 -2 3 C-2 2.34 -2 1.68 -2 1 C-1.34 0.67 -0.68 0.34 0 0 Z " fill="#A37D16" transform="translate(95,103)"/>
<path d="M0 0 C0.66 0 1.32 0 2 0 C2.1875 2.375 2.1875 2.375 2 5 C1.01 5.66 0.02 6.32 -1 7 C-1.99 6.67 -2.98 6.34 -4 6 C-3.525625 5.566875 -3.05125 5.13375 -2.5625 4.6875 C-0.76313043 2.97690387 -0.76313043 2.97690387 0 0 Z " fill="#A58714" transform="translate(102,63)"/>
<path d="M0 0 C0.33 0.66 0.66 1.32 1 2 C2.32 1.67 3.64 1.34 5 1 C4.67 1.99 4.34 2.98 4 4 C2.02 4 0.04 4 -2 4 C-2.33 3.34 -2.66 2.68 -3 2 C-2.01 2 -1.02 2 0 2 C0 1.34 0 0.68 0 0 Z " fill="#617268" transform="translate(85,113)"/>
<path d="M0 0 C0.99 0 1.98 0 3 0 C3 1.32 3 2.64 3 4 C1.35 4 -0.3 4 -2 4 C-1.34 2.68 -0.68 1.36 0 0 Z " fill="#A81817" transform="translate(81,63)"/>
<path d="M0 0 C1.65 0 3.3 0 5 0 C5 0.66 5 1.32 5 2 C3.02 2.66 1.04 3.32 -1 4 C-0.67 2.68 -0.34 1.36 0 0 Z " fill="#F6BD00" transform="translate(78,60)"/>
</svg>
